<?xml version="1.0" encoding="utf-8"?>
<!-- Generator: Adobe Illustrator 16.0.0, SVG Export Plug-In . SVG Version: 6.00 Build 0)  -->
<!DOCTYPE svg PUBLIC "-//W3C//DTD SVG 1.1//EN" "http://www.w3.org/Graphics/SVG/1.1/DTD/svg11.dtd">
<svg version="1.1" id="Layer_1" xmlns="http://www.w3.org/2000/svg" xmlns:xlink="http://www.w3.org/1999/xlink" x="0px" y="0px"
	 width="64px" height="32px" viewBox="-16 0 64 32" enable-background="new -16 0 64 32" xml:space="preserve">
<path fill="none" stroke="#000000" stroke-miterlimit="10" d="M-3.473,13.907c0.068-1.118-1.013-2.39-1.734-3.186
	c-0.757-0.834-1.83-0.77-2.835-0.34c-1.374,0.586-2.42,2.061-2.858,3.422c-0.593,1.845-0.187,3.39,1.45,4.526
	c1.715,1.188,4.425-0.371,5.257-2.041c0.427-0.857,0.526-1.875,0.563-2.788"/>
<path fill="none" stroke="#000000" stroke-miterlimit="10" d="M-5.416,13.347c-0.078-0.389-0.702-0.732-1.144-0.556
	c-0.875,0.349-0.571,1.579,0.082,1.972c1.039,0.626,1.35-1.014,1.22-1.721"/>
<path fill="none" stroke="#000000" stroke-miterlimit="10" d="M-0.848,11.923c0.158-0.506,0.017-1.107,0.107-1.642
	c0.127-0.752,0.469-1.375,0.955-1.966c1.01-1.224,2.823-1.585,4.385-1.224c1.002,0.232,1.502,0.84,1.904,1.702
	c0.253,0.545,0.111,1.316,0.209,1.91c0.075,0.452,0.245,0.979,0.17,1.441c-0.175,1.076-1.113,1.077-2.023,1.091
	c-1.267,0.02-2.242-0.288-3.416-0.691c-0.905-0.312-1.881-0.87-2.5-1.589"/>
<path fill="none" stroke="#000000" stroke-miterlimit="10" d="M3.617,9.177c-0.992,0.001-1.706,0.17-1.564,1.314
	c0.605,0.083,2.205,0.219,2.039-0.861C4.036,9.273,3.685,9.138,3.357,9.075"/>
<path fill="none" stroke="#000000" stroke-miterlimit="10" d="M2.303,14.771c0.179,0.702,1.329,4.359-0.778,3.176
	c-0.535-0.301-1.029-0.982-1.381-0.135c-0.175,0.418-0.047,1.08,0.018,1.506c0.029,0.197,0.322,0.953,0.146,1.158
	c-0.559,0.659-1.365-0.528-1.771-0.729c-0.979-0.48-0.842,0.898-0.919,1.566c-0.088,0.758-0.323,1.509-1.179,1.734
	c-0.857,0.229-1.821-0.572-2.328-1.209"/>
<path fill="none" stroke="#000000" stroke-miterlimit="10" d="M-13.818,21.027c-0.658-2.959-0.931-5.883-0.852-8.898
	c0.048-1.868,0.145-3.807,0.014-5.671c-0.047-0.667-0.39-1.416-0.375-2.064c0.008-0.387,0.011-0.377,0.33-0.603
	c0.913-0.649,2.342-0.98,3.42-1.223c1.522-0.342,3.141-0.23,4.691-0.194c1.704,0.04,3.421-0.048,5.105,0.236
	c1.711,0.289,3.387,0.928,5.12,0.923c1.672-0.005,3.318,0.081,4.979-0.054c0.949-0.076,1.445,0.881,1.728,1.702
	c0.46,1.341,0.308,2.979,0.156,4.355c-0.17,1.529-0.231,3.021-0.212,4.56c0.021,1.736,0.279,3.509,0.189,5.261
	c-0.07,1.322-0.187,2.693-0.142,4.021c0.021,0.597,0.067,1.021-0.19,1.617C9.757,25.876,8.904,26.777,8,27.169
	c-0.771,0.333-1.175,0.249-1.945,0.076c-1.389-0.312-2.945-0.491-4.365-0.565c-1.074-0.06-2.104,0.133-3.145,0.146
	c-2.316,0.026-4.632,0.055-6.948,0.055c-1.084,0-2.146-0.063-3.225-0.112c-0.71-0.037-1.415-0.168-1.916-0.697
	c-1.124-1.186-0.982-3.092-0.904-4.586c0.029-0.56,0.297-1.123,0.315-1.627"/>
<path fill="none" stroke="#000000" stroke-miterlimit="10" d="M-15.499,28.453c0.686,0.277,1.713-0.282,2.458-0.051
	c0.042-0.555,0.241-1.065,0.219-1.629"/>
<path fill="none" stroke="#000000" stroke-miterlimit="10" d="M9.185,28.555c-0.312,0.092-1.978,0.272-2.304,0.043
	c-0.209-0.148-0.278-0.906-0.271-1.16"/>
<path fill="none" stroke="#000000" stroke-miterlimit="10" d="M30.962,14.389c0.068-1.118-1.012-2.39-1.734-3.187
	c-0.756-0.834-1.83-0.77-2.834-0.34c-1.375,0.586-2.42,2.061-2.857,3.422c-0.594,1.846-0.188,3.391,1.449,4.526
	c1.715,1.188,4.426-0.371,5.258-2.041c0.426-0.856,0.525-1.875,0.562-2.788"/>
<path fill="none" stroke="#000000" stroke-miterlimit="10" d="M29.019,13.829c-0.078-0.39-0.701-0.732-1.143-0.557
	c-0.875,0.35-0.572,1.579,0.082,1.973c1.039,0.625,1.35-1.015,1.219-1.722"/>
<path fill="none" stroke="#000000" stroke-miterlimit="10" d="M33.587,12.404c0.158-0.506,0.016-1.106,0.107-1.642
	c0.127-0.752,0.469-1.375,0.955-1.966c1.01-1.224,2.822-1.585,4.385-1.224c1.002,0.232,1.502,0.84,1.904,1.702
	c0.252,0.545,0.111,1.316,0.209,1.91c0.074,0.451,0.244,0.979,0.17,1.441c-0.176,1.076-1.113,1.076-2.023,1.09
	c-1.268,0.021-2.242-0.287-3.416-0.69c-0.906-0.312-1.881-0.87-2.5-1.589"/>
<path fill="none" stroke="#000000" stroke-miterlimit="10" d="M38.052,9.658c-0.992,0.001-1.707,0.17-1.564,1.314
	c0.605,0.083,2.205,0.219,2.039-0.861C38.47,9.754,38.12,9.62,37.792,9.557"/>
<path fill="none" stroke="#000000" stroke-miterlimit="10" d="M36.737,15.253c0.18,0.701,1.33,4.358-0.777,3.176
	c-0.535-0.301-1.029-0.982-1.381-0.135c-0.176,0.418-0.047,1.08,0.018,1.506c0.029,0.197,0.322,0.953,0.146,1.158
	c-0.559,0.659-1.365-0.528-1.771-0.729c-0.979-0.48-0.842,0.898-0.918,1.566c-0.088,0.758-0.324,1.509-1.18,1.734
	c-0.857,0.229-1.82-0.572-2.328-1.209"/>
<path fill="none" stroke="#000000" stroke-miterlimit="10" d="M20.616,21.509c-0.658-2.959-0.931-5.883-0.852-8.898
	c0.048-1.868,0.145-3.807,0.014-5.671c-0.047-0.667-0.39-1.416-0.375-2.064c0.008-0.387,0.012-0.377,0.33-0.603
	c0.913-0.649,2.342-0.98,3.42-1.223c1.521-0.342,3.141-0.23,4.691-0.194c1.703,0.04,3.42-0.048,5.105,0.236
	c1.711,0.289,3.387,0.928,5.119,0.923c1.672-0.005,3.318,0.081,4.979-0.054c0.949-0.076,1.445,0.881,1.727,1.702
	c0.461,1.341,0.309,2.979,0.156,4.355c-0.17,1.528-0.23,3.021-0.211,4.56c0.021,1.736,0.279,3.51,0.189,5.262
	c-0.07,1.322-0.188,2.693-0.143,4.021c0.021,0.597,0.068,1.021-0.189,1.617c-0.385,0.881-1.238,1.782-2.143,2.174
	c-0.771,0.333-1.176,0.249-1.945,0.076c-1.389-0.312-2.945-0.491-4.365-0.565c-1.074-0.06-2.104,0.133-3.145,0.146
	c-2.316,0.026-4.633,0.055-6.947,0.055c-1.086,0-2.146-0.063-3.227-0.112c-0.709-0.037-1.414-0.168-1.915-0.697
	c-1.124-1.186-0.981-3.092-0.904-4.586c0.029-0.56,0.298-1.123,0.315-1.627"/>
<path fill="none" stroke="#000000" stroke-miterlimit="10" d="M20.275,28.935c0.686,0.277,1.713-0.282,2.458-0.051
	c0.042-0.555,0.241-1.065,0.219-1.629"/>
<path fill="none" stroke="#000000" stroke-miterlimit="10" d="M41.113,28.615c-0.312,0.092-1.979,0.272-2.305,0.043
	c-0.209-0.148-0.277-0.906-0.27-1.16"/>
</svg>
