<?xml version="1.0" encoding="utf-8"?>
<!-- Generator: Adobe Illustrator 16.0.0, SVG Export Plug-In . SVG Version: 6.00 Build 0)  -->
<!DOCTYPE svg PUBLIC "-//W3C//DTD SVG 1.1//EN" "http://www.w3.org/Graphics/SVG/1.1/DTD/svg11.dtd">
<svg version="1.1" id="Layer_1" xmlns="http://www.w3.org/2000/svg" xmlns:xlink="http://www.w3.org/1999/xlink" x="0px" y="0px"
	 width="256px" height="256px" viewBox="0 0 256 256" enable-background="new 0 0 256 256" xml:space="preserve">
<polygon fill="#BFD9E2" points="210.123,112.69 267.574,112.69 238.849,84.971 210.123,57.252 181.398,84.971 152.673,112.69 "/>
<polygon fill="#BFD9E2" points="149.511,122.553 199.834,122.553 174.672,61.276 149.511,0 124.349,61.276 99.187,122.553 "/>
<polygon fill="#BFD9E2" points="78.036,116.206 162.518,116.206 120.278,83.971 78.036,51.736 35.796,83.971 -6.443,116.206 "/>
<ellipse fill="#A3EAA2" cx="79.092" cy="131.583" rx="31.348" ry="28.317"/>
<ellipse fill="#A3EAA2" cx="120.713" cy="116.206" rx="25.826" ry="27.094"/>
<path fill="#A3EAA2" d="M177.492,106.683c24.645,0,44.625,11.913,44.625,26.609c0,14.69-19.98,26.608-44.625,26.608
	s-44.625-11.918-44.625-26.608C132.867,118.596,152.848,106.683,177.492,106.683z"/>
<ellipse fill="#A3EAA2" cx="226.688" cy="122.553" rx="21.97" ry="26.122"/>
<ellipse fill="#A3EAA2" cx="40.008" cy="117.919" rx="21.008" ry="16.598"/>
<rect y="119.467" fill="#A3EAA2" width="256" height="136.533"/>
<path fill="#A3EAA2" d="M0,99.154c10.684,0,19.348,8.401,19.348,18.763c0,10.366-8.664,18.767-19.348,18.767
	c-10.685,0-19.348-8.4-19.348-18.767C-19.348,107.556-10.684,99.154,0,99.154z"/>
<path fill="#A3EAA2" d="M256,99.154c10.684,0,19.348,8.401,19.348,18.763c0,10.366-8.664,18.767-19.348,18.767
	c-10.685,0-19.348-8.4-19.348-18.767C236.652,107.556,245.316,99.154,256,99.154z"/>
<path fill="#B1EFAF" d="M190.775,197.805c17.678,0,32.015,13.027,32.015,29.095c0,16.074-14.337,29.101-32.015,29.101
	c-17.68,0-32.015-13.026-32.015-29.101C158.761,210.832,173.098,197.805,190.775,197.805z"/>
<path fill="#B1EFAF" d="M61.016,134.553c9.937,0,17.995,7.804,17.995,17.43c0,9.629-8.059,17.433-17.995,17.433
	c-9.938,0-17.995-7.804-17.995-17.433C43.021,142.356,51.079,134.553,61.016,134.553z"/>
<path fill="#B1EFAF" d="M126.155,159.9c14.693,0,26.609,11.656,26.609,26.033c0,14.383-11.916,26.037-26.609,26.037
	c-14.694,0-26.609-11.654-26.609-26.037C99.546,171.557,111.461,159.9,126.155,159.9z"/>
<path fill="#B1EFAF" d="M190.775,129.741c8.117,0,14.7,7.242,14.7,16.175c0,8.937-6.583,16.178-14.7,16.178
	c-8.118,0-14.7-7.241-14.7-16.178C176.075,136.983,182.658,129.741,190.775,129.741z"/>
<path fill="#B1EFAF" d="M114.678,127.401c6.845,0,12.397,5.582,12.397,12.465c0,6.888-5.552,12.468-12.397,12.468
	c-6.846,0-12.397-5.58-12.397-12.468C102.281,132.982,107.833,127.401,114.678,127.401z"/>
<path fill="#B1EFAF" d="M42.943,174.213c15.313,0,27.731,11.636,27.731,25.988c0,14.36-12.418,25.995-27.731,25.995
	c-15.312,0-27.729-11.635-27.729-25.995C15.214,185.849,27.632,174.213,42.943,174.213z"/>
<polyline fill="#EBFBFF" points="78.036,51.736 47.744,74.854 56.5,84.971 70.674,77.833 81.833,89.112 86.439,77.167 102.5,80.5 
	105.518,72.708 "/>
<polyline fill="#EBFBFF" points="164.732,37.071 162.518,51.736 152.673,44.404 146.539,57.252 142.488,44.5 130.145,47.162 
	149.511,0 "/>
<polyline fill="#EBFBFF" points="236.652,82.852 226.688,91.833 214.5,87.343 204.719,96.431 199.834,82.852 183.595,82.852 
	210.123,57.252 "/>
<path fill="#B1EFAF" d="M211.493,118.767c5.356,0,9.7,4.134,9.7,9.232c0,5.101-4.344,9.234-9.7,9.234s-9.7-4.134-9.7-9.234
	C201.793,122.9,206.137,118.767,211.493,118.767z"/>
<path fill="#B1EFAF" d="M222.117,151.984c10.684,0,19.348,8.4,19.348,18.762c0,10.367-8.664,18.768-19.348,18.768
	c-10.685,0-19.348-8.4-19.348-18.768C202.77,160.385,211.434,151.984,222.117,151.984z"/>
<path fill="#B1EFAF" d="M32.075,121.562c4.38,0,7.933,3.662,7.933,8.178c0,4.52-3.553,8.18-7.933,8.18s-7.933-3.66-7.933-8.18
	C24.143,125.224,27.695,121.562,32.075,121.562z"/>
<path fill="#B1EFAF" d="M149.512,119.821c4.379,0,7.932,3.662,7.932,8.179c0,4.518-3.553,8.18-7.932,8.18
	c-4.381,0-7.934-3.662-7.934-8.18C141.578,123.483,145.131,119.821,149.512,119.821z"/>
<path fill="#B1EFAF" d="M99.546,216.472c21.709,0,39.314,15.482,39.314,34.577c0,19.104-17.605,34.585-39.314,34.585
	c-21.711,0-39.314-15.481-39.314-34.585C60.231,231.954,77.838,216.472,99.546,216.472z"/>
</svg>
