<?xml version="1.0" encoding="utf-8"?>
<!-- Generator: Adobe Illustrator 16.0.0, SVG Export Plug-In . SVG Version: 6.00 Build 0)  -->
<!DOCTYPE svg PUBLIC "-//W3C//DTD SVG 1.1//EN" "http://www.w3.org/Graphics/SVG/1.1/DTD/svg11.dtd">
<svg version="1.1" id="Layer_1" xmlns="http://www.w3.org/2000/svg" xmlns:xlink="http://www.w3.org/1999/xlink" x="0px" y="0px"
	 width="700px" height="700px" viewBox="0 0 700 700" enable-background="new 0 0 700 700" xml:space="preserve">
<path fill="none" stroke="#FFB3B3" stroke-width="55.9092" stroke-miterlimit="10" d="M656.387,349.673
	c0,169.82-137.66,307.5-307.5,307.5c-169.828,0-307.5-137.68-307.5-307.5c0-169.846,137.671-307.5,307.5-307.5
	C518.727,42.173,656.387,179.827,656.387,349.673z"/>
<path fill="none" stroke="#FFE0B3" stroke-width="74.5456" stroke-miterlimit="10" d="M612.8,354.403
	c0,149.237-121.008,270.226-270.229,270.226c-149.238,0-270.227-120.988-270.227-270.226c0-149.254,120.989-270.226,270.227-270.226
	C491.792,84.178,612.8,205.149,612.8,354.403z"/>
<path fill="none" stroke="#FFF8B3" stroke-width="87.3574" stroke-miterlimit="10" d="M575.529,354.403
	c0,128.646-104.318,232.953-232.958,232.953c-128.644,0-232.955-104.308-232.955-232.953c0-128.669,104.312-232.953,232.955-232.953
	C471.211,121.45,575.529,225.734,575.529,354.403z"/>
<path fill="none" stroke="#B3FFB3" stroke-width="55.9092" stroke-miterlimit="10" d="M556.893,354.403
	c0,118.35-95.968,214.317-214.322,214.317c-118.35,0-214.319-95.968-214.319-214.317c0-118.376,95.969-214.315,214.319-214.315
	C460.925,140.088,556.893,236.027,556.893,354.403z"/>
<path fill="none" stroke="#B3EBFF" stroke-width="37.2728" stroke-miterlimit="10" d="M538.254,354.403
	c0,108.067-87.609,195.686-195.683,195.686c-108.069,0-195.682-87.618-195.682-195.686c0-108.085,87.613-195.681,195.682-195.681
	C450.645,158.723,538.254,246.318,538.254,354.403z"/>
<path fill="none" stroke="#F0B3FF" stroke-width="25" stroke-miterlimit="10" d="M517.574,354.403
	c0,96.652-78.361,175.003-175.003,175.003c-96.638,0-174.997-78.351-174.997-175.003c0-96.666,78.359-174.997,174.997-174.997
	C439.213,179.406,517.574,257.738,517.574,354.403z"/>
</svg>
