<?xml version="1.0" encoding="utf-8"?>
<!-- Generator: Adobe Illustrator 16.0.0, SVG Export Plug-In . SVG Version: 6.00 Build 0)  -->
<!DOCTYPE svg PUBLIC "-//W3C//DTD SVG 1.1//EN" "http://www.w3.org/Graphics/SVG/1.1/DTD/svg11.dtd">
<svg version="1.1" id="Layer_1" xmlns="http://www.w3.org/2000/svg" xmlns:xlink="http://www.w3.org/1999/xlink" x="0px" y="0px"
	 width="32px" height="32px" viewBox="0 0 32 32" enable-background="new 0 0 32 32" xml:space="preserve">
<rect fill="#FFF9B3" stroke="#C6BA4A" stroke-miterlimit="10" width="32" height="27.289"/>
<path stroke="#000000" stroke-miterlimit="10" d="M3.5,27.541c0,1.52-0.945,3.855,0.75,4.301c0.684,0.182,3.32,0.271,3.902-0.094
	c0.654-0.412,0.912-1.534,0.35-2.057c-0.936-0.865-1.346,0.354-1.996,0.762C4.268,31.846,4.25,29.27,4.25,27.667"/>
<path stroke="#000000" stroke-miterlimit="10" d="M24.5,27.541c0,1.52-0.945,3.855,0.75,4.301c0.684,0.182,3.32,0.271,3.902-0.094
	c0.654-0.412,0.912-1.534,0.35-2.057c-0.936-0.865-1.346,0.354-1.996,0.762c-2.238,1.393-2.256-1.184-2.256-2.786"/>
<path fill="#FFFFFF" stroke="#000000" stroke-miterlimit="10" d="M18.973,12.768c0,2.136-1.729,3.867-3.868,3.867l0,0
	c-2.136,0-3.868-1.731-3.868-3.867V9.97c0-2.136,1.731-3.868,3.868-3.868l0,0c2.136,0,3.868,1.731,3.868,3.868V12.768z"/>
<path fill="#FFFFFF" stroke="#000000" stroke-miterlimit="10" d="M26.893,12.643c0,2.137-1.729,3.868-3.867,3.868l0,0
	c-2.137,0-3.866-1.731-3.866-3.868V9.845c0-2.136,1.729-3.868,3.866-3.868l0,0c2.139,0,3.867,1.732,3.867,3.868V12.643z"/>
<ellipse stroke="#000000" stroke-miterlimit="10" cx="21.402" cy="12.282" rx="1.168" ry="1.038"/>
<ellipse stroke="#000000" stroke-miterlimit="10" cx="16.811" cy="12.282" rx="1.168" ry="1.038"/>
<path fill="none" stroke="#000000" stroke-miterlimit="10" d="M22.9,18.33c-2.475,2.795-4.381,2.854-7.354,0.225"/>
</svg>
