<?xml version="1.0" encoding="utf-8"?>
<!-- Generator: Adobe Illustrator 16.0.0, SVG Export Plug-In . SVG Version: 6.00 Build 0)  -->
<!DOCTYPE svg PUBLIC "-//W3C//DTD SVG 1.1//EN" "http://www.w3.org/Graphics/SVG/1.1/DTD/svg11.dtd">
<svg version="1.1" id="Layer_1" xmlns="http://www.w3.org/2000/svg" xmlns:xlink="http://www.w3.org/1999/xlink" x="0px" y="0px"
	 width="64px" height="32px" viewBox="-16 0 64 32" enable-background="new -16 0 64 32" xml:space="preserve">
<rect x="-16" fill="#FFF9B3" stroke="#C6BA4A" stroke-miterlimit="10" width="32" height="27.289"/>
<path stroke="#000000" stroke-miterlimit="10" d="M-12.5,27.541c0,1.52-0.945,3.855,0.75,4.301c0.684,0.182,3.32,0.271,3.902-0.094
	c0.654-0.412,0.912-1.534,0.35-2.057c-0.936-0.865-1.346,0.354-1.996,0.762c-2.238,1.393-2.256-1.184-2.256-2.786"/>
<path stroke="#000000" stroke-miterlimit="10" d="M8.5,27.541c0,1.52-0.945,3.855,0.75,4.301c0.684,0.182,3.32,0.271,3.902-0.094
	c0.654-0.412,0.912-1.534,0.35-2.057c-0.936-0.865-1.346,0.354-1.996,0.762C9.268,31.846,9.25,29.27,9.25,27.667"/>
<path fill="#FFFFFF" stroke="#000000" stroke-miterlimit="10" d="M2.973,12.768c0,2.136-1.729,3.867-3.868,3.867l0,0
	c-2.136,0-3.868-1.731-3.868-3.867V9.97c0-2.136,1.731-3.868,3.868-3.868l0,0c2.136,0,3.868,1.731,3.868,3.868V12.768z"/>
<path fill="#FFFFFF" stroke="#000000" stroke-miterlimit="10" d="M10.893,12.643c0,2.137-1.729,3.868-3.867,3.868l0,0
	c-2.137,0-3.866-1.731-3.866-3.868V9.845c0-2.136,1.729-3.868,3.866-3.868l0,0c2.139,0,3.867,1.732,3.867,3.868V12.643z"/>
<ellipse stroke="#000000" stroke-miterlimit="10" cx="5.402" cy="12.282" rx="1.168" ry="1.038"/>
<ellipse stroke="#000000" stroke-miterlimit="10" cx="0.811" cy="12.282" rx="1.168" ry="1.038"/>
<path fill="none" stroke="#000000" stroke-miterlimit="10" d="M6.9,18.33c-2.475,2.795-4.381,2.854-7.354,0.225"/>
<rect x="16" y="0.144" fill="#FFF9B3" stroke="#C6BA4A" stroke-miterlimit="10" width="32" height="27.29"/>
<path stroke="#000000" stroke-miterlimit="10" d="M26.5,27.686c0,1.52-0.945,3.855,0.75,4.301c0.684,0.182,3.32,0.271,3.902-0.094
	c0.654-0.412,0.912-1.535,0.35-2.057c-0.936-0.865-1.346,0.354-1.996,0.762c-2.238,1.393-2.256-1.184-2.256-2.787"/>
<path stroke="#000000" stroke-miterlimit="10" d="M34.5,27.686c0,1.52-0.945,3.855,0.75,4.301c0.684,0.182,3.32,0.271,3.902-0.094
	c0.654-0.412,0.912-1.535,0.35-2.057c-0.936-0.865-1.346,0.354-1.996,0.762c-2.238,1.393-2.256-1.184-2.256-2.787"/>
<path fill="#FFFFFF" stroke="#000000" stroke-miterlimit="10" d="M34.973,12.912c0,2.136-1.729,3.867-3.867,3.867l0,0
	c-2.137,0-3.869-1.731-3.869-3.867v-2.798c0-2.136,1.731-3.868,3.869-3.868l0,0c2.136,0,3.867,1.731,3.867,3.868V12.912z"/>
<path fill="#FFFFFF" stroke="#000000" stroke-miterlimit="10" d="M42.893,12.787c0,2.136-1.729,3.867-3.867,3.867l0,0
	c-2.137,0-3.866-1.731-3.866-3.867V9.989c0-2.136,1.729-3.868,3.866-3.868l0,0c2.139,0,3.867,1.732,3.867,3.868V12.787z"/>
<ellipse stroke="#000000" stroke-miterlimit="10" cx="37.402" cy="12.426" rx="1.168" ry="1.038"/>
<ellipse stroke="#000000" stroke-miterlimit="10" cx="32.811" cy="12.426" rx="1.168" ry="1.038"/>
<path fill="none" stroke="#000000" stroke-miterlimit="10" d="M38.9,18.475c-2.475,2.795-4.381,2.854-7.354,0.225"/>
</svg>
