<?xml version="1.0" encoding="utf-8"?>
<!-- Generator: Adobe Illustrator 16.0.0, SVG Export Plug-In . SVG Version: 6.00 Build 0)  -->
<!DOCTYPE svg PUBLIC "-//W3C//DTD SVG 1.1//EN" "http://www.w3.org/Graphics/SVG/1.1/DTD/svg11.dtd">
<svg version="1.1" id="Layer_1" xmlns="http://www.w3.org/2000/svg" xmlns:xlink="http://www.w3.org/1999/xlink" x="0px" y="0px"
	 width="16px" height="16px" viewBox="8 0 16 16" enable-background="new 8 0 16 16" xml:space="preserve">
<rect x="8" y="1" fill="#A4AFFF" stroke="#1F2CCC" stroke-miterlimit="10" width="16" height="10.374"/>
<path stroke="#000000" stroke-miterlimit="10" d="M9.044,11.541c0,1.521-0.945,3.854,0.75,4.301c0.684,0.183,3.32,0.271,3.902-0.094
	c0.654-0.412,0.912-1.534,0.35-2.058c-0.936-0.864-1.346,0.355-1.996,0.763c-2.238,1.394-2.256-1.185-2.256-2.786"/>
<path stroke="#000000" stroke-miterlimit="10" d="M20.044,11.541c0,1.521-0.944,3.854,0.75,4.301
	c0.685,0.183,3.319,0.271,3.901-0.094c0.654-0.412,0.912-1.534,0.351-2.058c-0.937-0.864-1.346,0.355-1.996,0.763
	c-2.237,1.394-2.256-1.185-2.256-2.786"/>
<path fill="#FFFFFF" stroke="#000000" stroke-miterlimit="10" d="M16.676,5.621c0,1.401-1.73,2.536-3.867,2.536l0,0
	c-2.136,0-3.868-1.135-3.868-2.536V3.787c0-1.401,1.731-2.537,3.868-2.537l0,0c2.136,0,3.867,1.135,3.867,2.537V5.621z"/>
<path fill="#FFFFFF" stroke="#000000" stroke-miterlimit="10" d="M23.25,5.553c0,1.379-1.429,2.496-3.194,2.496l0,0
	c-1.765,0-3.194-1.117-3.194-2.496V3.746c0-1.378,1.43-2.496,3.194-2.496l0,0c1.766,0,3.194,1.118,3.194,2.496V5.553z"/>
<ellipse stroke="#000000" stroke-miterlimit="10" cx="21.592" cy="3.804" rx="1.168" ry="1.038"/>
<ellipse stroke="#000000" stroke-miterlimit="10" cx="14" cy="3.804" rx="1.167" ry="1.038"/>
<path fill="none" stroke="#000000" stroke-miterlimit="10" d="M18.333,8.833C17.411,9.167,16.191,9,15.166,9"/>
</svg>
