<?xml version="1.0" encoding="utf-8"?>
<!-- Generator: Adobe Illustrator 16.0.0, SVG Export Plug-In . SVG Version: 6.00 Build 0)  -->
<!DOCTYPE svg PUBLIC "-//W3C//DTD SVG 1.1//EN" "http://www.w3.org/Graphics/SVG/1.1/DTD/svg11.dtd">
<svg version="1.1" id="Layer_1" xmlns="http://www.w3.org/2000/svg" xmlns:xlink="http://www.w3.org/1999/xlink" x="0px" y="0px"
	 width="64px" height="32px" viewBox="0 0 64 32" enable-background="new 0 0 64 32" xml:space="preserve">
<path d="M1.632,24c0,2.729-2.272,6.913,1.805,7.714c1.646,0.331,7.98,0.487,9.381-0.167c1.574-0.738,2.194-2.753,0.849-3.693
	c-2.258-1.549-3.237,0.636-4.803,1.369c-5.383,2.502-5.427-2.125-5.427-4.996"/>
<path d="M18.688,24c0,2.729-2.27,6.913,1.807,7.714c1.645,0.331,7.979,0.487,9.381-0.167c1.572-0.738,2.193-2.753,0.85-3.693
	c-2.258-1.549-3.236,0.636-4.803,1.369c-5.383,2.502-5.428-2.125-5.428-4.996"/>
<g>
	<rect x="1.5" y="1.5" fill="#BBDDFF" width="29" height="21"/>
	<path fill="#4287CC" d="M29,3v18H3V3H29 M32,0H0v24h32V0L32,0z"/>
</g>
<ellipse fill="#FFFFFF" stroke="#000000" stroke-width="2" stroke-miterlimit="10" cx="21.912" cy="9.299" rx="5.912" ry="5.707"/>
<ellipse cx="22.9" cy="9.299" rx="1.859" ry="1.595"/>
<ellipse fill="#FFFFFF" stroke="#000000" stroke-width="2" stroke-miterlimit="10" cx="12.142" cy="9.299" rx="5.913" ry="5.707"/>
<ellipse cx="13.13" cy="9.299" rx="1.858" ry="1.595"/>
<g>
	<path d="M20.615,17.234c-0.006,0.002,0.02,0.037-0.002,0.135c-0.021,0.097-0.076,0.229-0.168,0.333
		c-0.18,0.226-0.465,0.45-0.811,0.626c-0.691,0.378-1.631,0.552-2.555,0.515c-0.924-0.04-1.834-0.291-2.5-0.644
		c-0.668-0.322-1.093-0.73-1.093-0.73s0.477-0.261,1.161-0.412c0.69-0.183,1.586-0.248,2.475-0.211
		c0.887,0.04,1.764,0.186,2.424,0.346c0.33,0.065,0.604,0.137,0.793,0.146c0.094,0.003,0.168-0.002,0.211-0.024
		C20.6,17.289,20.613,17.227,20.615,17.234z"/>
</g>
<path d="M36.632,24c0,2.729-2.272,6.913,1.806,7.714c1.645,0.331,7.979,0.487,9.381-0.167c1.573-0.738,2.193-2.753,0.849-3.693
	c-2.259-1.549-3.237,0.636-4.804,1.369c-5.383,2.502-5.426-2.125-5.426-4.996"/>
<path d="M47.688,24c0,2.729-2.27,6.913,1.807,7.714c1.645,0.331,7.979,0.487,9.381-0.167c1.572-0.738,2.193-2.753,0.85-3.693
	c-2.258-1.549-3.236,0.636-4.803,1.369c-5.383,2.502-5.428-2.125-5.428-4.996"/>
<g>
	<rect x="33.5" y="1.5" fill="#BBDDFF" width="29" height="21"/>
	<path fill="#4287CC" d="M61,3v18H35V3H61 M64,0H32v24h32V0L64,0z"/>
</g>
<ellipse fill="#FFFFFF" stroke="#000000" stroke-width="2" stroke-miterlimit="10" cx="53.912" cy="9.299" rx="5.912" ry="5.707"/>
<ellipse cx="54.9" cy="9.299" rx="1.859" ry="1.595"/>
<ellipse fill="#FFFFFF" stroke="#000000" stroke-width="2" stroke-miterlimit="10" cx="44.143" cy="9.299" rx="5.912" ry="5.707"/>
<ellipse cx="45.131" cy="9.299" rx="1.857" ry="1.595"/>
<g>
	<path d="M52.615,17.234c-0.006,0.002,0.02,0.037-0.002,0.135c-0.021,0.097-0.076,0.229-0.168,0.333
		c-0.18,0.226-0.465,0.45-0.811,0.626c-0.691,0.378-1.631,0.552-2.555,0.515c-0.924-0.04-1.834-0.291-2.5-0.644
		c-0.668-0.322-1.094-0.73-1.094-0.73s0.477-0.261,1.162-0.412c0.689-0.183,1.586-0.248,2.475-0.211
		c0.887,0.04,1.764,0.186,2.424,0.346c0.33,0.065,0.604,0.137,0.793,0.146c0.094,0.003,0.168-0.002,0.211-0.024
		C52.6,17.289,52.613,17.227,52.615,17.234z"/>
</g>
</svg>
