<?xml version="1.0" encoding="utf-8"?>
<!-- Generator: Adobe Illustrator 16.0.0, SVG Export Plug-In . SVG Version: 6.00 Build 0)  -->
<!DOCTYPE svg PUBLIC "-//W3C//DTD SVG 1.1//EN" "http://www.w3.org/Graphics/SVG/1.1/DTD/svg11.dtd">
<svg version="1.1" id="Layer_1" xmlns="http://www.w3.org/2000/svg" xmlns:xlink="http://www.w3.org/1999/xlink" x="0px" y="0px"
	 width="32px" height="16px" viewBox="-8 0 32 16" enable-background="new -8 0 32 16" xml:space="preserve">
<rect x="-8.307" y="-0.097" fill="#A4AFFF" stroke="#1F2CCC" stroke-miterlimit="10" width="16" height="11.064"/>
<path stroke="#000000" stroke-miterlimit="10" d="M-6.721,11.146c0,1.623-0.87,4.109,0.692,4.586c0.631,0.197,3.061,0.291,3.597-0.1
	c0.603-0.439,0.841-1.637,0.323-2.195c-0.863-0.92-1.241,0.379-1.84,0.814c-2.062,1.488-2.08-1.264-2.08-2.973"/>
<path stroke="#000000" stroke-miterlimit="10" d="M3.421,11.146c0,1.623-0.871,4.109,0.691,4.586c0.631,0.197,3.061,0.291,3.596-0.1
	c0.604-0.439,0.841-1.637,0.324-2.195c-0.864-0.92-1.241,0.379-1.84,0.814c-2.063,1.488-2.08-1.264-2.08-2.973"/>
<path fill="#FFFFFF" stroke="#000000" stroke-miterlimit="10" d="M0.316,4.832c0,1.494-1.596,2.705-3.565,2.705l0,0
	c-1.969,0-3.565-1.211-3.565-2.705V2.875c0-1.495,1.595-2.706,3.565-2.706l0,0c1.97,0,3.565,1.21,3.565,2.706V4.832z"/>
<path fill="#FFFFFF" stroke="#000000" stroke-miterlimit="10" d="M6.377,4.759c0,1.471-1.318,2.662-2.944,2.662l0,0
	c-1.627,0-2.946-1.191-2.946-2.662V2.832c0-1.47,1.319-2.662,2.946-2.662l0,0c1.628,0,2.944,1.192,2.944,2.662V4.759z"/>
<ellipse stroke="#000000" stroke-miterlimit="10" cx="4.849" cy="2.893" rx="1.077" ry="1.107"/>
<ellipse stroke="#000000" stroke-miterlimit="10" cx="-2.151" cy="2.893" rx="1.076" ry="1.107"/>
<path fill="none" stroke="#000000" stroke-miterlimit="10" d="M1.844,8.257c-0.851,0.356-1.975,0.178-2.92,0.178"/>
<rect x="8" y="0" fill="#A4AFFF" stroke="#1F2CCC" stroke-miterlimit="10" width="16" height="11.064"/>
<path stroke="#000000" stroke-miterlimit="10" d="M11.586,11.243c0,1.623-0.87,4.109,0.691,4.586c0.631,0.197,3.062,0.291,3.598-0.1
	c0.604-0.439,0.841-1.637,0.322-2.195c-0.863-0.92-1.24,0.379-1.84,0.814c-2.062,1.488-2.08-1.264-2.08-2.973"/>
<path stroke="#000000" stroke-miterlimit="10" d="M17.729,11.243c0,1.623-0.871,4.109,0.691,4.586
	c0.631,0.197,3.061,0.291,3.596-0.1c0.604-0.439,0.841-1.637,0.324-2.195c-0.863-0.92-1.24,0.379-1.84,0.814
	c-2.063,1.488-2.08-1.264-2.08-2.973"/>
<path fill="#FFFFFF" stroke="#000000" stroke-miterlimit="10" d="M16.623,4.928c0,1.494-1.596,2.705-3.566,2.705l0,0
	c-1.969,0-3.564-1.211-3.564-2.705V2.972c0-1.495,1.595-2.706,3.564-2.706l0,0c1.971,0,3.566,1.21,3.566,2.706V4.928z"/>
<path fill="#FFFFFF" stroke="#000000" stroke-miterlimit="10" d="M22.684,4.855c0,1.471-1.318,2.662-2.943,2.662l0,0
	c-1.628,0-2.947-1.191-2.947-2.662V2.928c0-1.47,1.32-2.662,2.947-2.662l0,0c1.627,0,2.943,1.192,2.943,2.662V4.855z"/>
<ellipse stroke="#000000" stroke-miterlimit="10" cx="21.155" cy="2.99" rx="1.077" ry="1.107"/>
<ellipse stroke="#000000" stroke-miterlimit="10" cx="14.156" cy="2.99" rx="1.075" ry="1.107"/>
<path fill="none" stroke="#000000" stroke-miterlimit="10" d="M18.15,8.354c-0.85,0.356-1.975,0.178-2.92,0.178"/>
</svg>
