<?xml version="1.0" encoding="utf-8"?>
<!-- Generator: Adobe Illustrator 16.0.0, SVG Export Plug-In . SVG Version: 6.00 Build 0)  -->
<!DOCTYPE svg PUBLIC "-//W3C//DTD SVG 1.1//EN" "http://www.w3.org/Graphics/SVG/1.1/DTD/svg11.dtd">
<svg version="1.1" id="Layer_1" xmlns="http://www.w3.org/2000/svg" xmlns:xlink="http://www.w3.org/1999/xlink" x="0px" y="0px"
	 width="32px" height="64px" viewBox="16 0 32 64" enable-background="new 16 0 32 64" xml:space="preserve">
<path d="M17.631,55.207c0,3-2.272,7.598,1.805,8.479c1.646,0.363,7.98,0.535,9.381-0.184c1.574-0.812,2.194-3.025,0.849-4.061
	c-2.258-1.701-3.237,0.699-4.803,1.506c-5.383,2.75-5.427-2.336-5.427-5.492"/>
<path d="M35.228,55.207c0,3-2.271,7.598,1.805,8.479c1.646,0.362,7.98,0.535,9.382-0.185c1.574-0.812,2.193-3.024,0.849-4.06
	c-2.258-1.701-3.237,0.699-4.803,1.506c-5.383,2.75-5.428-2.338-5.428-5.493"/>
<g>
	<rect x="17.5" y="1.5" fill="#B8FFAB" width="29" height="53"/>
	<path fill="#4BB735" d="M45,3v50H19V3H45 M48,0H16v56h32V0L48,0z"/>
</g>
<ellipse fill="#FFFFFF" stroke="#000000" stroke-width="2" stroke-miterlimit="10" cx="38.515" cy="20.818" rx="8.485" ry="10.814"/>
<ellipse stroke="#000000" stroke-width="2" stroke-miterlimit="10" cx="42.191" cy="20.593" rx="1.198" ry="1.48"/>
<ellipse fill="#FFFFFF" stroke="#000000" stroke-width="2" stroke-miterlimit="10" cx="28.824" cy="21.132" rx="8.485" ry="10.814"/>
<ellipse stroke="#000000" stroke-width="2" stroke-miterlimit="10" cx="32.499" cy="21.965" rx="1.197" ry="1.48"/>
<g>
	<path d="M39.586,38.299c0,0-0.609,0.378-1.544,0.682c-0.463,0.174-1.014,0.308-1.627,0.382c-0.606,0.083-1.266,0.137-1.914,0.144
		c-1.278-0.012-2.558-0.179-3.503-0.454c-0.95-0.245-1.586-0.587-1.586-0.587s0.636-0.331,1.595-0.562
		c0.963-0.259,2.229-0.406,3.496-0.396c0.624-0.002,1.237,0.022,1.824,0.089c0.58,0.076,1.142,0.154,1.63,0.244
		C38.926,38.01,39.586,38.299,39.586,38.299z"/>
</g>
</svg>
