<?xml version="1.0" encoding="utf-8"?>
<!-- Generator: Adobe Illustrator 16.0.0, SVG Export Plug-In . SVG Version: 6.00 Build 0)  -->
<!DOCTYPE svg PUBLIC "-//W3C//DTD SVG 1.1//EN" "http://www.w3.org/Graphics/SVG/1.1/DTD/svg11.dtd">
<svg version="1.1" id="Layer_1" xmlns="http://www.w3.org/2000/svg" xmlns:xlink="http://www.w3.org/1999/xlink" x="0px" y="0px"
	 width="16px" height="32px" viewBox="0 0 16 32" enable-background="new 0 0 16 32" xml:space="preserve">
<rect x="-0.062" fill="#A4FFA4" stroke="#2FA531" stroke-miterlimit="10" width="16" height="27.289"/>
<path stroke="#000000" stroke-miterlimit="10" d="M0.438,27.541c0,1.52-0.945,3.855,0.75,4.301c0.684,0.182,3.32,0.271,3.902-0.094
	c0.654-0.412,0.912-1.534,0.35-2.057c-0.936-0.865-1.346,0.354-1.996,0.762c-2.238,1.393-2.256-1.184-2.256-2.786"/>
<path stroke="#000000" stroke-miterlimit="10" d="M11.438,27.541c0,1.52-0.945,3.855,0.75,4.301c0.684,0.182,3.32,0.271,3.902-0.094
	c0.654-0.412,0.912-1.534,0.35-2.057c-0.936-0.865-1.346,0.354-1.996,0.762c-2.238,1.393-2.256-1.184-2.256-2.786"/>
<path fill="#FFFFFF" stroke="#000000" stroke-miterlimit="10" d="M8.019,12.768c0,2.136-1.542,3.867-3.451,3.867l0,0
	c-1.906,0-3.452-1.731-3.452-3.867V9.97c0-2.136,1.545-3.868,3.452-3.868l0,0c1.905,0,3.451,1.731,3.451,3.868V12.768z"/>
<path fill="#FFFFFF" stroke="#000000" stroke-miterlimit="10" d="M14.855,12.643c0,2.137-1.486,3.868-3.326,3.868l0,0
	c-1.837,0-3.325-1.731-3.325-3.868V9.845c0-2.136,1.488-3.868,3.325-3.868l0,0c1.84,0,3.326,1.732,3.326,3.868V12.643z"/>
<ellipse stroke="#000000" stroke-miterlimit="10" cx="10.448" cy="12.282" rx="1.168" ry="1.038"/>
<ellipse stroke="#000000" stroke-miterlimit="10" cx="5.856" cy="12.282" rx="1.168" ry="1.038"/>
<path fill="none" stroke="#000000" stroke-miterlimit="10" d="M11.839,18.33c-2.475,2.795-4.381,2.854-7.354,0.225"/>
</svg>
