<?xml version="1.0" encoding="utf-8"?>
<!-- Generator: Adobe Illustrator 16.0.0, SVG Export Plug-In . SVG Version: 6.00 Build 0)  -->
<!DOCTYPE svg PUBLIC "-//W3C//DTD SVG 1.1//EN" "http://www.w3.org/Graphics/SVG/1.1/DTD/svg11.dtd">
<svg version="1.1" id="Layer_1" xmlns="http://www.w3.org/2000/svg" xmlns:xlink="http://www.w3.org/1999/xlink" x="0px" y="0px"
	 width="32px" height="18px" viewBox="0 -1 32 18" enable-background="new 0 -1 32 18" xml:space="preserve">
<rect x="0" y="-1" fill="#FF8383" stroke="#BC4444" stroke-miterlimit="10" width="32" height="11.541"/>
<path stroke="#000000" stroke-miterlimit="10" d="M1.606,12.978c0,1.521-0.945,3.854,0.75,4.301c0.684,0.184,3.32,0.271,3.902-0.094
	c0.654-0.412,0.912-1.535,0.35-2.059c-0.936-0.863-1.346,0.355-1.996,0.764c-2.238,1.395-2.256-1.186-2.256-2.787"/>
<path stroke="#000000" stroke-miterlimit="10" d="M26.252,12.54c0,1.521-0.944,3.854,0.75,4.301
	c0.685,0.184,3.317,0.271,3.899-0.094c0.654-0.412,0.912-1.535,0.353-2.059c-0.938-0.863-1.346,0.354-1.996,0.764
	c-2.237,1.395-2.256-1.186-2.256-2.787"/>
<path fill="#FFFFFF" stroke="#000000" stroke-miterlimit="10" d="M16.238,4.57c0,1.538-1.73,2.785-3.867,2.785l0,0
	c-2.136,0-3.868-1.247-3.868-2.785V2.556c0-1.538,1.731-2.785,3.868-2.785l0,0c2.136,0,3.867,1.246,3.867,2.785V4.57z"/>
<path fill="#FFFFFF" stroke="#000000" stroke-miterlimit="10" d="M24.158,4.57c0,1.538-1.729,2.785-3.867,2.785l0,0
	c-2.137,0-3.867-1.247-3.867-2.785V2.556c0-1.538,1.73-2.785,3.867-2.785l0,0c2.14,0,3.867,1.247,3.867,2.785V4.57z"/>
<ellipse stroke="#000000" stroke-miterlimit="10" cx="21.154" cy="3.575" rx="1.168" ry="1.038"/>
<ellipse stroke="#000000" stroke-miterlimit="10" cx="13.562" cy="3.575" rx="1.167" ry="1.038"/>
<path fill="none" stroke="#000000" stroke-miterlimit="10" d="M17.896,8.604c-0.922,0.334-2.142,0.168-3.167,0.168"/>
</svg>
