<?xml version="1.0" encoding="utf-8"?>
<!-- Generator: Adobe Illustrator 16.0.0, SVG Export Plug-In . SVG Version: 6.00 Build 0)  -->
<!DOCTYPE svg PUBLIC "-//W3C//DTD SVG 1.1//EN" "http://www.w3.org/Graphics/SVG/1.1/DTD/svg11.dtd">
<svg version="1.1" id="Layer_1" xmlns="http://www.w3.org/2000/svg" xmlns:xlink="http://www.w3.org/1999/xlink" x="0px" y="0px"
	 width="32px" height="16px" viewBox="0 0 32 16" enable-background="new 0 0 32 16" xml:space="preserve">
<rect x="0.438" y="0.229" fill="#FF8383" stroke="#BC4444" stroke-miterlimit="10" width="32" height="11.541"/>
<path stroke="#000000" stroke-miterlimit="10" d="M2.044,11.541c0,1.521-0.945,3.854,0.75,4.301c0.684,0.183,3.32,0.271,3.902-0.094
	c0.654-0.412,0.912-1.534,0.35-2.058C6.11,12.826,5.7,14.046,5.05,14.453c-2.238,1.394-2.256-1.185-2.256-2.786"/>
<path stroke="#000000" stroke-miterlimit="10" d="M26.689,11.541c0,1.521-0.944,3.854,0.75,4.301c0.685,0.183,3.318,0.271,3.9-0.094
	c0.654-0.412,0.912-1.534,0.352-2.058c-0.938-0.864-1.346,0.354-1.996,0.763c-2.237,1.394-2.256-1.185-2.256-2.786"/>
<path fill="#FFFFFF" stroke="#000000" stroke-miterlimit="10" d="M16.676,5.799c0,1.538-1.73,2.785-3.867,2.785l0,0
	c-2.136,0-3.868-1.247-3.868-2.785V3.785C8.941,2.247,10.672,1,12.809,1l0,0c2.136,0,3.867,1.246,3.867,2.785V5.799z"/>
<path fill="#FFFFFF" stroke="#000000" stroke-miterlimit="10" d="M24.596,5.799c0,1.538-1.729,2.785-3.867,2.785l0,0
	c-2.137,0-3.867-1.247-3.867-2.785V3.785c0-1.538,1.73-2.785,3.867-2.785l0,0c2.139,0,3.867,1.247,3.867,2.785V5.799z"/>
<ellipse stroke="#000000" stroke-miterlimit="10" cx="21.592" cy="4.804" rx="1.168" ry="1.038"/>
<ellipse stroke="#000000" stroke-miterlimit="10" cx="14" cy="4.804" rx="1.167" ry="1.038"/>
<path fill="none" stroke="#000000" stroke-miterlimit="10" d="M18.333,9.833C17.411,10.167,16.191,10,15.166,10"/>
</svg>
