<?xml version="1.0" encoding="utf-8"?>
<!-- Generator: Adobe Illustrator 16.0.0, SVG Export Plug-In . SVG Version: 6.00 Build 0)  -->
<!DOCTYPE svg PUBLIC "-//W3C//DTD SVG 1.1//EN" "http://www.w3.org/Graphics/SVG/1.1/DTD/svg11.dtd">
<svg version="1.1" id="Layer_1" xmlns="http://www.w3.org/2000/svg" xmlns:xlink="http://www.w3.org/1999/xlink" x="0px" y="0px"
	 width="64px" height="16px" viewBox="-16 0 64 16" enable-background="new -16 0 64 16" xml:space="preserve">
<rect x="-16" y="0.114" fill="#FF8383" stroke="#BC4444" stroke-miterlimit="10" width="32" height="11.541"/>
<path stroke="#000000" stroke-miterlimit="10" d="M-14.394,11.426c0,1.521-0.945,3.854,0.75,4.301
	c0.684,0.184,3.32,0.271,3.902-0.094c0.654-0.412,0.912-1.534,0.35-2.059c-0.936-0.863-1.346,0.356-1.996,0.764
	c-2.238,1.395-2.256-1.186-2.256-2.786"/>
<path stroke="#000000" stroke-miterlimit="10" d="M10.251,11.426c0,1.521-0.944,3.854,0.75,4.301
	c0.685,0.184,3.317,0.271,3.899-0.094c0.654-0.412,0.912-1.534,0.353-2.059c-0.938-0.863-1.346,0.354-1.996,0.764
	c-2.237,1.395-2.256-1.186-2.256-2.786"/>
<path fill="#FFFFFF" stroke="#000000" stroke-miterlimit="10" d="M0.238,5.684c0,1.538-1.73,2.785-3.867,2.785l0,0
	c-2.136,0-3.868-1.247-3.868-2.785V3.67c0-1.538,1.731-2.785,3.868-2.785l0,0c2.136,0,3.867,1.246,3.867,2.785V5.684z"/>
<path fill="#FFFFFF" stroke="#000000" stroke-miterlimit="10" d="M8.158,5.684c0,1.538-1.729,2.785-3.867,2.785l0,0
	c-2.137,0-3.867-1.247-3.867-2.785V3.67c0-1.538,1.73-2.785,3.867-2.785l0,0c2.14,0,3.867,1.247,3.867,2.785V5.684z"/>
<ellipse stroke="#000000" stroke-miterlimit="10" cx="5.154" cy="4.689" rx="1.168" ry="1.038"/>
<ellipse stroke="#000000" stroke-miterlimit="10" cx="-2.438" cy="4.689" rx="1.167" ry="1.038"/>
<path fill="none" stroke="#000000" stroke-miterlimit="10" d="M1.895,9.718c-0.922,0.334-2.142,0.167-3.167,0.167"/>
<rect x="16.438" y="0.114" fill="#FF8383" stroke="#BC4444" stroke-miterlimit="10" width="32" height="11.541"/>
<path stroke="#000000" stroke-miterlimit="10" d="M24.044,11.426c0,1.521-0.944,3.854,0.75,4.301
	c0.685,0.184,3.32,0.271,3.901-0.094c0.654-0.412,0.912-1.534,0.351-2.059c-0.937-0.863-1.346,0.356-1.996,0.764
	c-2.237,1.395-2.256-1.186-2.256-2.786"/>
<path stroke="#000000" stroke-miterlimit="10" d="M37.689,11.426c0,1.521-0.944,3.854,0.75,4.301
	c0.685,0.184,3.317,0.271,3.899-0.094c0.654-0.412,0.912-1.534,0.353-2.059c-0.938-0.863-1.346,0.354-1.996,0.764
	c-2.237,1.395-2.256-1.186-2.256-2.786"/>
<path fill="#FFFFFF" stroke="#000000" stroke-miterlimit="10" d="M32.676,5.684c0,1.538-1.73,2.785-3.867,2.785l0,0
	c-2.136,0-3.867-1.247-3.867-2.785V3.67c0-1.538,1.73-2.785,3.867-2.785l0,0c2.137,0,3.867,1.246,3.867,2.785V5.684z"/>
<path fill="#FFFFFF" stroke="#000000" stroke-miterlimit="10" d="M40.596,5.684c0,1.538-1.729,2.785-3.867,2.785l0,0
	c-2.137,0-3.867-1.247-3.867-2.785V3.67c0-1.538,1.73-2.785,3.867-2.785l0,0c2.14,0,3.867,1.247,3.867,2.785V5.684z"/>
<ellipse stroke="#000000" stroke-miterlimit="10" cx="37.592" cy="4.689" rx="1.168" ry="1.038"/>
<ellipse stroke="#000000" stroke-miterlimit="10" cx="30" cy="4.689" rx="1.167" ry="1.038"/>
<path fill="none" stroke="#000000" stroke-miterlimit="10" d="M34.333,9.718c-0.922,0.334-2.142,0.167-3.167,0.167"/>
</svg>
