<?xml version="1.0" encoding="utf-8"?>
<!-- Generator: Adobe Illustrator 16.0.0, SVG Export Plug-In . SVG Version: 6.00 Build 0)  -->
<!DOCTYPE svg PUBLIC "-//W3C//DTD SVG 1.1//EN" "http://www.w3.org/Graphics/SVG/1.1/DTD/svg11.dtd">
<svg version="1.1" id="Layer_1" xmlns="http://www.w3.org/2000/svg" xmlns:xlink="http://www.w3.org/1999/xlink" x="0px" y="0px"
	 width="64px" height="64px" viewBox="0 0 64 64" enable-background="new 0 0 64 64" xml:space="preserve">
<g>
	<path fill="#80FEFE" d="M-223-54.004c0-10.157,0.073-20.314-0.06-30.469c-0.027-2.083,0.335-2.987,2.533-2.546
		c0.641,0.128,1.328,0.02,1.995,0.02c167.667,0,335.334,0.016,503.001-0.099c3.816-0.003,4.677,0.933,4.563,4.625
		c-0.29,9.482-0.097,18.978-0.097,28.469c-1.654,0.049-3.31,0.098-4.965,0.147c-4.022-1.384-7.984-2.987-12.078-4.107
		c-8.233-2.253-15.631-1.09-21.434,5.89c-1.254,1.509-2.898,2.694-4.364,4.028c-0.184-2.816-2.562-4.446-4.489-4.567
		c-5.879-0.369-12.228-2.214-17.258,2.762c-1.55,1.534-3.021,2.384-5.213,1.5c-3.644-1.472-7.028-0.81-10.146,1.489
		c-5.742-3.248-11.946-3.466-17.567-0.674c-6.582,3.27-8.563,3.327-12.751-3.089c-5.796-8.877-9.27-10.532-21.987-6.622
		c-5.569,1.713-7.323,1.284-9.419-4.199c-2-5.236-4.221-10.367-7.203-15.111c-2.204-3.508-4.493-6.916-9.595-6.49
		c-6.5,0.541-9.251,5.139-11.401,10.223c-3.903,9.229-8.382,18.163-13.149,26.962c-8.895-5.405-17.413-1.692-25.798,1.372
		c-2.215,0.81-3.624,0.741-5.611-0.24c-8.434-4.167-16.975-5.208-25.498-0.132c-5.664-4.962-11.598-5.931-19.19-3.863
		c-9.455,2.575-18.212,1.174-23.655-9.874c-2.274-4.615-5.814-5.8-10.528-4.756c-7.144,1.581-9.277,0.842-12.126-5.78
		c-2.673-6.215-7.494-7.481-13.492-7.97c-7.734-0.631-15.002,2.727-22.648,2.077c-4.93-0.418-9.455,1.333-14.064,2.471
		c-2.526,0.624-4.627,2.117-5.436,5.164c-0.923,3.479-2.504,6.785-3.819,10.16c-1.659,4.26-4.264,6.724-9.366,6.342
		c-4.01-0.298-8.209,0.794-10.403,4.52c-1.937,3.292-4.498,6.098-6.397,9.375c-6.13-3.703-12.382-4.72-18.859-0.865
		c-1.224-0.135-2.06-0.792-2.903-1.705c-4.934-5.347-6.718-12.397-10.1-18.576c-1.568-2.865-3.333-5.12-6.764-4.778
		c-3.43,0.341-5.496,2.453-6.421,5.896c-0.591,2.197-1.627,4.319-2.747,6.316c-0.947,1.69-2.194,3.904-4.392,3.337
		c-1.799-0.464-3.145-2.192-3.772-4.308c-1.731-5.84-4.255-11.444-4.994-17.577c-0.25-2.075-0.988-3.916-3.68-3.744
		c-4.593,0.292-6.606-2.485-7.213-6.483c-0.735-4.847-3.539-5.97-8.034-5.605c-4.169,0.338-6.083,3.277-7.918,6.081
		c-7.127,10.89-14.319,21.728-22.123,32.149C-215.125-50.106-219.173-51.886-223-54.004z"/>
	<path fill-rule="evenodd" clip-rule="evenodd" fill="#FEE683" d="M288.936,128.973c0,7.166-0.108,14.334,0.066,21.495
		c0.052,2.156-0.414,2.949-2.569,2.521c-0.642-0.127-1.329-0.02-1.996-0.02c-167.646,0-335.291-0.015-502.937,0.094
		c-3.749,0.003-4.806-0.82-4.598-4.599c0.356-6.479,0.099-12.993,0.099-19.492C-52.354,128.973,118.29,128.973,288.936,128.973z"/>
	<path fill-rule="evenodd" clip-rule="evenodd" fill="#EBBC00" d="M288.936,128.973c-170.646,0-341.29,0-511.936,0
		c0-7.999,0-15.998,0-23.997c170.646,0,341.29,0,511.936,0C288.936,112.975,288.936,120.974,288.936,128.973z"/>
	<path fill-rule="evenodd" clip-rule="evenodd" fill="#FEE683" d="M288.936,104.976c-170.646,0-341.29,0-511.936,0
		c0-7.999,0-15.998,0-23.997c170.646,0,341.29,0,511.936,0C288.936,88.978,288.936,96.977,288.936,104.976z"/>
	<path fill-rule="evenodd" clip-rule="evenodd" fill="#EBBC00" d="M288.936,80.979c-170.646,0-341.29,0-511.936,0
		c0-7.999,0-15.998,0-23.997c170.646,0,341.29,0,511.936,0C288.936,64.98,288.936,72.979,288.936,80.979z"/>
	<path fill-rule="evenodd" clip-rule="evenodd" fill="#FEE683" d="M288.936,56.981c-170.646,0-341.29,0-511.936,0
		c0-7.999,0-15.998,0-23.996c170.646,0,341.29,0,511.936,0C288.936,40.983,288.936,48.982,288.936,56.981z"/>
	<path fill-rule="evenodd" clip-rule="evenodd" fill="#EBBC00" d="M288.936,32.985c-170.646,0-341.29,0-511.936,0
		c0-8,0-15.999,0-23.998c18.672-0.056,37.344-0.11,56.016-0.166c9.989,0,19.979,0,29.968-0.001c11.668,0,23.336,0,35.004,0
		c5.662,0,11.326,0,16.988,0.001c8.011,0,16.021,0,24.031,0c38.317,0,76.635,0,114.952-0.001C76.717,8.876,99.474,8.98,122.23,8.976
		c27.906-0.005,55.812-0.1,83.72-0.155c0.664,0,1.328,0,1.992,0c26.997,0.056,53.996,0.111,80.993,0.167
		C288.936,16.987,288.936,24.986,288.936,32.985z"/>
	<path fill-rule="evenodd" clip-rule="evenodd" fill="#00C900" d="M-166.984,8.822c-18.672,0.056-37.344,0.11-56.016,0.166
		c0-13.331,0-26.664,0-39.995c3.901-2.028,7.63-4.273,10.105-8.083c1.452,1.982,0.935,4.069,0.367,6.181
		c-0.325,1.209-1.156,2.854,0.663,3.305c1.376,0.342,1.501-1.352,2.016-2.358c0.822-1.604,0.821-4.166,3.854-3.507
		c5.987,1.298,11.272,10.693,8.906,16.438c-0.872,2.119-0.574,3.816,0.189,5.696c0.278,0.685,0.731,1.145,1.468,1.054
		c1.178-0.146,1.15-0.966,0.845-1.832c-1.158-3.29,0.731-4.88,3.307-6.264c7.406-3.979,15.26,0.592,15.34,8.997
		c0.012,1.229,0.142,2.556,1.498,2.812c1.45,0.274,1.334-1.101,1.428-2.037c0.404-4.032,3.546-5.854,6.668-6.503
		c3.763-0.783,8.464,0.55,7.106-6c-0.042-0.201,0.387-0.509,0.612-0.753c2.066-2.241,4.428-4.67,7.624-3.452
		c3.6,1.371,7.69,2.812,7.989,7.819c0.085,1.421-0.352,3.179,1.913,3.39c-0.302,2.283-1.394,4.82-0.752,6.797
		c1.734,5.341,0.724,7.292-5.009,5.509c-0.514-0.159-1.23,0.409-1.87,0.568C-156.241-1.367-162.396,2.541-166.984,8.822z"/>
	<path fill-rule="evenodd" clip-rule="evenodd" fill="#00C900" d="M288.936,8.988c-26.997-0.056-53.996-0.111-80.993-0.167
		c0.772-2.417,1.907-4.687,4.225-5.87c4.15-2.119,2.176-4.117-0.122-5.804c-1.565-1.149-3.4-2.063-5.498-2.171
		c-2.896-0.149-2.588-1.538-0.969-3.056c2.426-2.275,5.232-3.526,8.616-2.33c6.726,2.378,13.379,5.552,20.57,1.439
		c0.378-0.216,0.983-0.063,1.48-0.036c4.189,0.237,3.963-1.833,2.4-4.589c-2.532-4.469-6.742-5.696-11.706-5.436
		c0.851-3.195,2.92-4.558,5.234-5.522c6.376-2.659,12.666-1.473,18.911,0.631c0.979,0.329,1.718,1.897,3.029,0.631
		c3.955-3.815,9.108-4.371,14.155-5.391c4.758-0.962,5.692-2.88,4.088-7.356c-0.445-1.248-1.037-2.443-1.562-3.664
		c2.857-1.088,4.054,1.682,6.046,2.604c2.782,8.092,4.46,9.076,12.095,7.093C288.936-17.009,288.936-4.011,288.936,8.988z"/>
	<path fill-rule="evenodd" clip-rule="evenodd" fill="#008000" d="M-141.102-16.105c-2.264-0.211-1.827-1.969-1.912-3.39
		c-0.299-5.008-4.389-6.448-7.989-7.819c-3.196-1.218-5.558,1.211-7.624,3.452c-0.226,0.244-0.654,0.552-0.612,0.753
		c1.357,6.55-3.343,5.217-7.106,6c-3.122,0.648-6.264,2.471-6.668,6.503c-0.094,0.937,0.022,2.312-1.428,2.037
		c-1.356-0.257-1.486-1.584-1.498-2.812c-0.08-8.405-7.934-12.976-15.34-8.997c-2.576,1.383-4.465,2.974-3.307,6.264
		c0.305,0.866,0.333,1.687-0.845,1.832c-0.737,0.091-1.19-0.369-1.468-1.054c-0.763-1.88-1.062-3.577-0.189-5.696
		c2.366-5.745-2.919-15.14-8.906-16.438c-3.033-0.658-3.032,1.903-3.854,3.507c-0.515,1.006-0.64,2.7-2.016,2.358
		c-1.819-0.451-0.988-2.096-0.663-3.305c0.568-2.112,1.085-4.199-0.367-6.181c-0.719-6.005-5.294-8.079-10.105-9.915
		c0-1.667,0-3.333,0-5c3.827,2.118,7.875,3.898,10.964,7.146c0.731,0.957,1.463,1.916,2.195,2.874
		c1.261,1.904,0.814,5.26,3.366,5.855c8.475,1.978,11.733,7.893,12.842,15.718c7.519-3.083,14.048-1.394,19.617,3.879
		c3.365,3.187,6.402-3.166,10.272-1.549c1.096,0.458,1.487-0.565,1.772-1.713c1.856-7.453,8.446-10.735,14.802-6.625
		c4.753,3.075,8.714,5.092,13.54,0.705c0.49-0.446,1.64-0.414,2.415-0.259c4.103,0.819,6.029-1.055,6.685-4.944
		c0.179-1.064,1.014-2.019,1.549-3.023c0.669-0.641,1.337-1.281,2.006-1.922c6.477-3.855,12.729-2.837,18.86,0.865
		c0.162,0.789,0.036,1.727,1.071,2.062c0.498,0.647,1.328,1.243,1.441,1.953c0.726,4.556,3.505,5.247,7.653,5.115
		c4.447-0.141,7.771,2.961,9.614,6.629c1.166,2.317,1.734,1.773,3.776,1.638c5.803-0.384,12.186-2.328,17.264,1.676
		c4.122,3.25,7.238,7.91,13.467,5.01c3.583,3.852,6.984,0.991,10.637-0.039c7.584-2.139,15.387-1.313,23.062-0.521
		c3.713,0.383,6.854,2.574,8.604,6.203c8.425-7.616,11.021-8.762,20.068-8.727c3.552,0.014,7.617,1.159,8.311-4.315
		c0.034-0.27,0.42-0.496,0.646-0.74c4.721-5.102,11.79-6.56,18.295-3.612c1.071,0.485,1.417,0.715,2.239-0.439
		c2.725-3.832,6.934-5.793,10.877-8.058c1.174,0.097,2.437,0.525,3.22-0.853c4.263,0.305,9.047-1.174,13.185,4.215
		c-6.611-0.92-12.365-3.972-17.296,0.96c-3.263,0.972-6.313,2.703-7.812,5.622c-1.914,3.729-3.335,3.644-6.135,0.944
		c-3.299-3.182-7.834-2.115-13.352,1.973c-3.628,2.687-2.791,5.119,0.137,7.854c-1.058,0.194-1.565,0.426-2.015,0.342
		c-0.963-0.181-1.901-0.507-2.839-0.804c-9.315-2.951-17.238-0.571-23.937,6.32c-4.135,4.254-4.102,4.287-7.015-0.517
		c-0.844-1.263-1.815-2.451-3.276-2.961c-9.504-3.324-18.787-2.941-27.619,2.099c-1.729,0.986-3.103,2.952-4.972,0.599
		c-3.232-4.068-6.755-3.413-10.432-0.84c-1.352,0.945-2.325,1.284-2.875-0.741c-2.286-8.411-8.754-9.487-16.031-9.041
		c-6.587,0.403-8.524-0.172-12.841-4.019c-3.736-4.936-8.42-4.856-13.794-2.04c0.231-6.522-2.253-10.96-7.979-13.266
		c-4.558-1.837-8.765-0.438-12.275,3.857c-2.872,3.514-2.242,6.658,0.741,9.682c0.836,0.847,1.872,2.033,0.849,2.987
		c-1.45,1.351-2.225-0.561-3.102-1.297C-129.697-28.085-138.827-25.16-141.102-16.105z"/>
	<path fill-rule="evenodd" clip-rule="evenodd" fill="#008000" d="M276.841-37.1c-1.992-0.922-3.188-3.692-6.045-2.606
		c-7.756-4.07-11.409,2.688-16.126,6.575c-0.794-1.742-1.26-3.182-2.046-4.419c-3.922-6.179-8.998-7.769-14.056-4.543
		c-0.983,0.627-1.837,2.701-3.109,1.336c-1.361-1.462,0.51-2.584,1.421-3.676c1.045-1.254,2.405-1.617,3.989-1.601
		c0.916,0.01,2.213,0.372,2.588-0.805c0.436-1.37-0.879-2.061-1.748-2.714c-3.714-2.79-11.389-2.08-15.497,1.966
		c-2.559,2.519-4.89,3.094-7.933,1.546c-3-1.527-5.388-0.727-7.325,1.87c-0.645,0.029-1.288,0.059-1.932,0.088
		c-0.011-0.926-0.021-1.853-0.033-2.778c3.117-2.298,6.502-2.96,10.146-1.489c2.191,0.884,3.663,0.034,5.213-1.5
		c5.03-4.977,11.379-3.131,17.258-2.762c1.927,0.121,4.306,1.75,4.489,4.567c-0.365,1.539,0.425,2.085,1.817,2.114
		c2.899,2.19,5.61,4.577,7.663,7.638c4.637-4.493,9.773-5.978,15.879-3.986c1.38,0.45,4.266,1.091,4.187-0.719
		c-0.197-4.504,3.606-6.011,5.422-8.943c0.97-0.639,1.938-1.276,2.908-1.915c1.655-0.05,3.311-0.099,4.965-0.147
		c0,0.667,0,1.333,0,2C281.968-50.837,278.762-46.885,276.841-37.1z"/>
	<path fill-rule="evenodd" clip-rule="evenodd" fill="#00FE00" d="M276.841-37.1c1.921-9.785,5.127-13.737,12.095-14.904
		c0,7.332,0,14.665,0,21.997C281.301-28.024,279.623-29.008,276.841-37.1z"/>
	<path fill-rule="evenodd" clip-rule="evenodd" fill="#00FE00" d="M-223-49.005c4.811,1.836,9.386,3.91,10.105,9.915
		c-2.475,3.81-6.204,6.055-10.105,8.083C-223-37.006-223-43.006-223-49.005z"/>
	<path fill-rule="evenodd" clip-rule="evenodd" fill="#5587B2" d="M-101.045-34.934c-1.035-0.335-0.909-1.273-1.071-2.062
		c1.899-3.277,4.459-6.083,6.396-9.375c2.193-3.726,6.393-4.818,10.403-4.52c5.102,0.382,7.707-2.082,9.366-6.342
		c1.314-3.375,2.896-6.681,3.819-10.16c0.809-3.046,2.91-4.54,5.436-5.164c4.61-1.139,9.134-2.889,14.064-2.471
		c7.646,0.65,14.914-2.708,22.648-2.077c5.998,0.488,10.818,1.755,13.492,7.97c2.849,6.622,4.983,7.36,12.126,5.78
		c4.713-1.044,8.254,0.141,10.528,4.756c5.443,11.048,14.2,12.449,23.655,9.874c7.592-2.068,13.526-1.1,19.19,3.863
		c-0.013,1.367-0.378,2.958,1.845,2.908c2.426,2.647,4.852,5.293,7.277,7.94c-0.783,1.378-2.046,0.949-3.22,0.853
		c-2.482-3.467-5.824-6.161-8.425-9.579c-2.004-2.633-4.946-4.779-8.623-5.144c-5.44,1.123-10.833,2.1-16.494,1.995
		c-8.048-0.15-14-3.145-17.14-10.64c-1.438-3.432-3.648-4.749-7.192-4.5c-1.984,0.14-4.014-0.189-5.975,0.068
		c-4.754,0.623-7.883-0.936-9.434-5.722c-2.099-6.48-7.221-8.203-13.495-8.386c-6.166-0.179-11.897,2.659-18.053,2.187
		c-5.255-0.809-10.092,1.146-14.998,2.424c-2.616,0.682-4.473,2.349-5.277,5.316c-0.941,3.475-2.483,6.793-3.846,10.147
		c-1.631,4.012-4.155,6.309-9.011,6.109c-5.141-0.211-9.512,1.5-12.117,6.798C-96.476-39.425-98.187-36.571-101.045-34.934z"/>
	<path fill-rule="evenodd" clip-rule="evenodd" fill="#5587B2" d="M208.989-46.862c0.012,0.926,0.022,1.853,0.033,2.778
		c-0.211,0.214-0.422,0.427-0.63,0.637c-6.439-4.994-10.923-5.104-17.539-0.434c-4.086,0.872-8.141,1.429-11.904-1.119
		c-1.006-1.512-2.003-3.029-3.021-4.533c-5.086-7.507-7.126-8.353-15.649-6.342c-1.113,0.262-2.114,1.021-3.229,1.248
		c-4.021,0.822-8.175,2.002-11.102-2.377c-2.627-8.232-5.732-16.205-11.985-22.512c-1.779-1.796-3.446-1.982-5.625-0.429
		c-7.582,5.407-9.379,13.995-12.375,21.94c-2.378,2.543-3.702,5.651-5.151,8.779c-3.296,7.117-6.734,14.276-14.883,17.284
		c-0.841-0.101-1.749-0.064-2.135-1.07c4.745-2.596,8.454-6.257,11.213-10.896c0.929-0.36,0.936-1.149,0.909-1.955
		c4.768-8.8,9.246-17.733,13.149-26.962c2.15-5.084,4.901-9.682,11.401-10.223c5.102-0.426,7.391,2.982,9.595,6.49
		c2.982,4.745,5.203,9.875,7.203,15.111c2.096,5.483,3.85,5.912,9.419,4.199c12.718-3.91,16.191-2.255,21.987,6.622
		c4.188,6.416,6.169,6.359,12.751,3.089C197.043-50.328,203.247-50.109,208.989-46.862z"/>
	<path fill-rule="evenodd" clip-rule="evenodd" fill="#5587B2" d="M-120.976-37.861c-0.669,0.641-1.337,1.281-2.006,1.922
		c-3.975-0.812-5.302-4.267-6.893-7.252c-2.332-4.375-4.323-8.934-6.415-13.434c-0.873-1.877-1.996-4.008-4.141-3.732
		c-2.067,0.267-3.746,1.986-4.445,4.231c-0.883,2.833-1.685,5.641-3.476,8.156c-1.665,2.338-3.702,3.143-6.364,2.94
		c-2.864-0.219-4.352-2.065-5.299-4.532c-0.709-1.847-1.41-3.698-2.115-5.546c-1.089-4.563-2.113-9.144-3.328-13.673
		c-0.212-0.793-0.519-2.255-1.759-2.093c-7.075,0.924-8.321-4.281-9.706-9.204c-1.178-4.187-4.3-3.966-6.34-1.891
		c-5.958,6.06-10.943,12.939-14.168,20.927c-5.178,4.928-8.894,10.921-12.413,17.058c-0.731-0.958-1.463-1.917-2.195-2.874
		c7.803-10.421,14.996-21.259,22.123-32.149c1.835-2.804,3.749-5.743,7.918-6.081c4.496-0.365,7.299,0.758,8.034,5.605
		c0.606,3.999,2.62,6.775,7.213,6.483c2.692-0.172,3.43,1.669,3.68,3.744c0.738,6.133,3.263,11.737,4.994,17.577
		c0.627,2.116,1.973,3.844,3.772,4.308c2.198,0.567,3.445-1.646,4.392-3.337c1.119-1.998,2.156-4.119,2.747-6.316
		c0.926-3.444,2.991-5.555,6.421-5.896c3.43-0.342,5.195,1.914,6.764,4.778c3.382,6.179,5.167,13.229,10.1,18.576
		C-123.035-38.653-122.199-37.996-120.976-37.861z"/>
	<path fill-rule="evenodd" clip-rule="evenodd" fill="#008000" d="M105.916-45.862c0.026,0.806,0.02,1.595-0.909,1.954
		c-7.696-2.804-15.193-1.562-22.551,1.271c-1.157,0.445-3.31,0.553-2.624,2.798c0.352,1.149,2.03,2.549,0.193,3.253
		c-1.557,0.598-2.28-1.418-3.163-2.58c-5.933-7.811-19.2-9.218-26.009-2.789c-2.223,0.05-1.857-1.541-1.845-2.908
		c8.523-5.076,17.064-4.035,25.498,0.132c1.987,0.981,3.396,1.05,5.611,0.24C88.503-47.554,97.021-51.267,105.916-45.862z"/>
	<path fill-rule="evenodd" clip-rule="evenodd" fill="#5587B2" d="M283.971-53.857c-0.97,0.639-1.938,1.276-2.908,1.916
		c-3.65-1.35-7.237-2.921-10.967-3.997c-6.119-1.765-11.58-0.599-16.062,4.285c-1.884,2.051-4.072,3.823-6.122,5.721
		c-1.393-0.028-2.183-0.575-1.817-2.114c1.466-1.334,3.11-2.519,4.364-4.028c5.803-6.98,13.2-8.144,21.434-5.89
		C275.986-56.844,279.948-55.241,283.971-53.857z"/>
	<path fill-rule="evenodd" clip-rule="evenodd" fill="#00C900" d="M50.854-41.954c6.809-6.429,20.076-5.021,26.009,2.789
		c0.883,1.162,1.606,3.177,3.163,2.58c1.837-0.704,0.158-2.104-0.193-3.253c-0.686-2.245,1.467-2.353,2.624-2.798
		c7.357-2.833,14.854-4.075,22.551-1.271c-2.759,4.64-6.468,8.301-11.213,10.896c-1.329,0.019-2.662-0.031-3.984,0.074
		c-1.2,0.096-2.603,0.493-2.279,1.963c0.278,1.267,1.575,0.474,2.5,0.513c4.805,0.204,7.948,2.883,9.67,7.197
		c0.871,2.183,1.319,4.534,2.149,7.483c2.285-4.032,3.238-8.288,8.406-8.266c4.05,0.018,6.365,2.774,7.428,5.652
		c1.084,2.932,2.593,3.199,5.108,3.632c4.228,0.729,8.273,2.162,7.16,7.945c0.166,1.575-0.543,2.908-1.196,4.249
		c-0.604,1.239-1.146,2.516,0.081,3.645c1.446,1.329,2.26-0.257,3.386-0.771c6.92-3.158,13.992-5.258,21.173-0.907
		c2.035,1.233,3.194,1.1,5.168-0.299c4.359-3.093,9.432-4.051,14.625-2.426c2.673,0.837,5.021,0.717,7.681-0.064
		c8.912-2.618,21.995,3.873,25.081,12.211c-27.907,0.056-55.813,0.15-83.72,0.155C99.474,8.98,76.717,8.876,53.96,8.821
		c-0.32-3.648,2.755-4.661,4.992-6.15c5.854-3.897,5.984-6.2,0.316-10.784c-0.769-0.622-1.689-1.057-2.457-1.68
		c-2.589-2.104-1.488-3.765,0.877-4.828c1.135-0.51,2.599-0.33,3.915-0.383c2.378-0.093,5.161-0.236,5.804-2.786
		c0.558-2.212-0.922-4.375-2.762-6.038c-3.054-2.761-6.941-3.647-10.626-5.011c4.931-4.932,10.685-1.88,17.296-0.96
		c-4.138-5.389-8.922-3.911-13.185-4.215C55.705-36.661,53.279-39.307,50.854-41.954z"/>
	<path fill-rule="evenodd" clip-rule="evenodd" fill="#00FE00" d="M205.95,8.821c-3.086-8.339-16.169-14.829-25.081-12.211
		c-2.66,0.781-5.008,0.901-7.681,0.064c-5.193-1.625-10.266-0.667-14.625,2.426c-1.974,1.399-3.133,1.532-5.168,0.299
		c-7.181-4.351-14.253-2.251-21.173,0.907c-1.126,0.515-1.939,2.101-3.386,0.771c-1.227-1.129-0.685-2.406-0.081-3.645
		c0.653-1.341,1.362-2.673,1.196-4.25c1.104-1.001,2.243-1.962,3.303-3.006c2.902-2.86,5.575-5.39,10.259-2.671
		c2.424,1.406,2.327-0.744,1.915-2.704c-0.846-4.014,1.655-6.345,4.98-7.391c3.468-1.089,6.271,0.572,7.38,4.014
		c0.546,1.694,1.026,2.729,2.889,2.549c3.437-0.333,6.069,1.086,8.354,3.544c1.61,1.733,2.557,1.716,2.963-1.062
		c1.117-7.625,4.419-9.641,12.256-7.832c1.454,0.336,2.732,0.808,3.674-1.187c3.453-7.31,7.887-8.935,15.321-5.875
		c1.094,0.45,2.182,0.691,3.443-0.375c-3.8-2.989-1.395-4.634,1.355-6.227c2.143-1.241,4.24-2.562,6.39-3.792
		c2.359-1.35,1.04-1.84-0.499-2.315c-0.994-1.008-1.987-2.015-2.98-3.023c1.938-2.597,4.325-3.397,7.325-1.87
		c3.043,1.548,5.374,0.973,7.933-1.546c4.108-4.045,11.783-4.755,15.497-1.966c0.869,0.653,2.184,1.345,1.748,2.714
		c-0.375,1.177-1.672,0.814-2.588,0.805c-1.584-0.017-2.944,0.347-3.989,1.601c-0.911,1.092-2.782,2.214-1.421,3.676
		c1.272,1.365,2.126-0.709,3.109-1.336c5.058-3.225,10.134-1.635,14.056,4.543c0.786,1.237,1.252,2.677,2.046,4.419
		c4.717-3.887,8.37-10.645,16.126-6.575c0.524,1.222,1.116,2.417,1.562,3.666c1.604,4.476,0.67,6.395-4.088,7.356
		c-5.047,1.02-10.2,1.576-14.155,5.391c-1.312,1.266-2.05-0.302-3.029-0.631c-6.245-2.104-12.535-3.29-18.911-0.631
		c-2.314,0.965-4.384,2.328-5.234,5.522c4.964-0.26,9.174,0.967,11.706,5.436c1.562,2.756,1.789,4.827-2.4,4.589
		c-0.497-0.027-1.103-0.18-1.48,0.036c-7.191,4.113-13.845,0.938-20.57-1.439c-3.384-1.196-6.19,0.055-8.616,2.33
		c-1.619,1.518-1.927,2.907,0.969,3.056c2.098,0.108,3.933,1.022,5.498,2.171c2.298,1.688,4.272,3.685,0.122,5.804
		c-2.317,1.183-3.452,3.454-4.225,5.87C207.278,8.821,206.614,8.821,205.95,8.821z"/>
	<path fill-rule="evenodd" clip-rule="evenodd" fill="#00FE00" d="M54.02-28.838c3.685,1.364,7.572,2.25,10.626,5.011
		c1.84,1.663,3.319,3.826,2.762,6.038c-0.643,2.549-3.426,2.693-5.804,2.786c-1.316,0.053-2.78-0.127-3.915,0.383
		c-2.365,1.062-3.466,2.723-0.877,4.828c0.768,0.623,1.688,1.058,2.457,1.68c5.668,4.584,5.537,6.887-0.316,10.784
		c-2.237,1.49-5.312,2.502-4.992,6.15C15.643,8.822-22.675,8.822-60.992,8.822c2.183-4.846,6.766-5.847,11.238-7.086
		c3.468-0.962,6.896-1.667,9.21,2.019c0.88,1.4,1.082,0.407,1.663-0.067C-30.174-3.423-20.408-7.62-8.948-7.104
		c2.913,4.803,2.879,4.771,7.015,0.517c6.698-6.892,14.621-9.271,23.937-6.32c0.938,0.297,1.876,0.623,2.839,0.804
		c0.449,0.084,0.957-0.147,2.015-0.342c-2.928-2.734-3.765-5.167-0.137-7.854c5.518-4.087,10.053-5.155,13.352-1.973
		c2.8,2.7,4.221,2.785,6.135-0.944C47.706-26.136,50.757-27.867,54.02-28.838z"/>
	<path fill-rule="evenodd" clip-rule="evenodd" fill="#00C900" d="M-8.948-7.104C-20.408-7.62-30.174-3.423-38.881,3.688
		c-0.581,0.474-0.783,1.467-1.663,0.067c-2.314-3.686-5.742-2.981-9.21-2.019c-4.472,1.239-9.055,2.24-11.238,7.086
		c-8.011,0-16.021,0-24.031,0c-4.47-12.215-14.67-16.373-25.142-10.243c-0.968,0.566-2.388,0.857-2.315,2.28
		c0.073,1.428,1.527,1.558,2.545,2.01c3.101,1.378,6.896,1.819,7.925,5.952c-11.668,0-23.336,0-35.004,0
		c1.926-8.885,9.805-14.625,17.523-14.819c1.986-0.051,3.951,0.199,5.065-2.138c2.556-5.363,7.231-6.467,12.521-5.582
		c1.923,0.321,3.039,0.214,4.058-1.583c2.363-4.168,6.043-6.4,10.854-6.708c4.317,3.847,6.254,4.422,12.841,4.019
		c7.277-0.446,13.745,0.63,16.031,9.041c0.55,2.025,1.524,1.686,2.875,0.741c3.677-2.572,7.2-3.228,10.432,0.84
		c1.869,2.353,3.244,0.387,4.972-0.599c8.832-5.04,18.115-5.422,27.619-2.099C-10.763-9.555-9.792-8.367-8.948-7.104z"/>
	<path fill-rule="evenodd" clip-rule="evenodd" fill="#00FE00" d="M-86.995-22.009c-4.811,0.308-8.491,2.54-10.854,6.708
		c-1.02,1.797-2.135,1.904-4.058,1.583c-5.29-0.886-9.965,0.219-12.521,5.582c-1.114,2.337-3.079,2.087-5.065,2.138
		c-7.718,0.194-15.597,5.935-17.523,14.819c-9.989,0.001-19.979,0.001-29.968,0.001c4.588-6.281,10.743-10.189,18.252-12.053
		c0.64-0.159,1.356-0.728,1.87-0.568c5.733,1.783,6.743-0.168,5.009-5.509c-0.642-1.977,0.45-4.514,0.752-6.797
		c2.274-9.055,11.404-11.98,18.544-5.981c0.877,0.736,1.652,2.648,3.102,1.297c1.023-0.954-0.013-2.14-0.849-2.987
		c-2.983-3.023-3.613-6.167-0.741-9.682c3.51-4.295,7.718-5.694,12.275-3.857c5.726,2.306,8.211,6.744,7.979,13.266
		C-95.415-26.865-90.73-26.945-86.995-22.009z"/>
	<path fill-rule="evenodd" clip-rule="evenodd" fill="#00FE00" d="M-102.011,8.821c-1.029-4.133-4.824-4.574-7.925-5.952
		c-1.018-0.452-2.472-0.582-2.545-2.01c-0.072-1.422,1.348-1.713,2.315-2.28c10.472-6.13,20.672-1.973,25.142,10.243
		C-90.686,8.821-96.349,8.821-102.011,8.821z"/>
	<path fill-rule="evenodd" clip-rule="evenodd" fill="#A6C0D7" d="M37.863-47.884c3.677,0.364,6.619,2.51,8.623,5.144
		c2.601,3.418,5.942,6.112,8.425,9.579c-3.943,2.264-8.152,4.226-10.877,8.058c-0.822,1.154-1.168,0.925-2.239,0.439
		c-6.506-2.948-13.575-1.49-18.295,3.612c-0.226,0.244-0.611,0.471-0.646,0.74c-0.693,5.474-4.758,4.329-8.311,4.315
		C5.497-16.032,2.9-14.886-5.524-7.27c-1.75-3.629-4.891-5.82-8.604-6.203c-7.676-0.792-15.479-1.617-23.062,0.521
		c-3.653,1.03-7.055,3.891-10.637,0.039c-6.229,2.9-9.346-1.761-13.467-5.01c-5.078-4.003-11.461-2.06-17.264-1.676
		c-2.042,0.135-2.61,0.679-3.776-1.638c-1.844-3.667-5.167-6.77-9.614-6.629c-4.148,0.132-6.928-0.559-7.653-5.115
		c-0.113-0.71-0.943-1.306-1.441-1.953c2.858-1.637,4.569-4.491,5.877-7.152c2.605-5.298,6.976-7.009,12.117-6.798
		c4.856,0.199,7.38-2.097,9.011-6.109c1.363-3.354,2.905-6.672,3.846-10.147c0.804-2.967,2.662-4.634,5.277-5.316
		c4.906-1.278,9.743-3.232,14.998-2.424c1.351,4.229,3.79,6.137,8.164,3.767c1.38-0.748,2.847-1.295,4.274-0.532
		c5.105,2.729,11.163,3.965,14.786,9.349c-1.489,0.439-2.878,1.032-4.322,1.229c-1.589,0.215-3.002,0.268-2.988,2.422
		c0.012,1.871,0.483,3.357,2.6,3.573c1.723,0.176,3.572,0.603,4.453,1.925c2.119,3.176,5.117,3.253,8.346,3.162
		c1.827-0.053,3.681-0.096,5.482,0.155c2.989,0.418,4.83,2.792,5.456,5.221c0.537,2.08-2.131,3.34-3.748,4.471
		c-2.151,1.506-4.589,2.61-6.933,3.832c-2.166,1.129-2.328,3.969-1.113,4.433c2.999,1.146,3.274,3.963,4.915,5.863
		c1.764,2.042,3.948,2.666,6.26,1.549c5.105-2.465,10.589-3.703,15.939-5.394c4.075-1.287,4.313-2.926,1.065-5.738
		c-0.793-0.687-2.561-0.74-1.984-2.328c0.469-1.292,1.683-2.194,3.151-2.019c3.877,0.466,7.536-1.044,11.357-1.081
		C34.309-39.11,34.309-39.145,37.863-47.884z M-45.555-27.062c3.584,0.411,8.016-0.552,8.756-3.333
		c1.562-5.862,6.028-6.305,10.239-7.94c1.766-0.686,4.977-0.475,4.25-3.714c-0.616-2.752-3.103-3.144-5.588-2.951
		c-3.781,0.293-6.941-0.611-10.07-3.139c-4.046-3.27-13.065-2.022-14.733,1.94c-1.956,4.649-5.615,6.115-9.855,7.281
		c-1.868,0.515-4.308,0.922-4.241,3.438c0.078,2.893,2.836,1.89,4.517,2.595c3.458,1.452,8.127-0.81,10.563,2.965
		C-50.074-27.374-48.186-26.691-45.555-27.062z"/>
	<path fill-rule="evenodd" clip-rule="evenodd" fill="#A6C0D7" d="M-162.129-55.107c0.705,1.848,1.406,3.699,2.115,5.546
		c0.947,2.467,2.435,4.313,5.299,4.532c2.662,0.203,4.699-0.602,6.364-2.94c1.792-2.516,2.593-5.324,3.476-8.156
		c0.699-2.245,2.377-3.964,4.445-4.231c2.145-0.276,3.268,1.855,4.141,3.732c2.092,4.5,4.083,9.059,6.415,13.434
		c1.591,2.985,2.917,6.44,6.893,7.252c-0.535,1.004-1.37,1.958-1.549,3.023c-0.656,3.889-2.582,5.763-6.685,4.944
		c-0.774-0.155-1.924-0.188-2.415,0.259c-4.826,4.387-8.786,2.37-13.54-0.705c-6.355-4.11-12.945-0.828-14.802,6.625
		c-0.285,1.147-0.676,2.17-1.772,1.713c-3.871-1.616-6.908,4.736-10.272,1.549c-5.569-5.273-12.098-6.962-19.617-3.879
		c-1.109-7.825-4.367-13.74-12.842-15.718c-2.552-0.596-2.104-3.952-3.366-5.855c3.519-6.136,7.234-12.129,12.414-17.058
		c2.193,1.197,1.407,3.055,1.017,4.781c-0.47,2.083-1.304,4.124-1.473,6.224c-0.149,1.86-1.113,4.442,0.774,5.529
		c2.245,1.294,3.234-1.543,4.729-2.644c0.527-0.388,0.938-0.932,1.415-1.392c5.137-4.951,7.783-4.546,10.527,1.604
		c1.58,3.542,3.33,3.772,5.526,0.661c0.748-1.06,1.439-2.206,1.916-3.408C-169.896-57.509-169.917-57.518-162.129-55.107z"/>
	<path fill-rule="evenodd" clip-rule="evenodd" fill="#A6C0D7" d="M247.912-45.932c2.05-1.898,4.238-3.669,6.122-5.721
		c4.481-4.883,9.942-6.049,16.062-4.285c3.729,1.075,7.316,2.647,10.967,3.997c-1.815,2.931-5.619,4.438-5.422,8.942
		c0.079,1.81-2.807,1.169-4.187,0.719c-6.105-1.992-11.242-0.507-15.879,3.986C253.522-41.355,250.812-43.742,247.912-45.932z"/>
	<path fill-rule="evenodd" clip-rule="evenodd" fill="#5587B2" d="M210.954-44.171c0.993,1.008,1.986,2.015,2.979,3.024
		c-1.013,0.329-2.025,0.658-3.039,0.987c-0.835-1.095-1.67-2.189-2.505-3.284c0.211-0.213,0.422-0.426,0.633-0.64
		C209.666-44.113,210.31-44.142,210.954-44.171z"/>
	<path fill-rule="evenodd" clip-rule="evenodd" fill="#FEFEFE" d="M37.863-47.884c-3.555,8.739-3.555,8.774-12.622,8.862
		c-3.821,0.037-7.479,1.547-11.357,1.081c-1.468-0.176-2.682,0.727-3.151,2.019c-0.577,1.587,1.19,1.641,1.984,2.328
		c3.248,2.812,3.01,4.451-1.065,5.738c-5.35,1.691-10.834,2.928-15.939,5.394c-2.312,1.116-4.497,0.492-6.26-1.549
		c-1.641-1.899-1.917-4.717-4.915-5.863c-1.215-0.464-1.053-3.304,1.113-4.433c2.344-1.221,4.782-2.326,6.933-3.832
		c1.617-1.131,4.284-2.391,3.748-4.471c-0.626-2.429-2.467-4.803-5.456-5.221c-1.801-0.251-3.655-0.208-5.482-0.155
		c-3.229,0.092-6.227,0.015-8.346-3.162c-0.881-1.322-2.73-1.749-4.453-1.925c-2.116-0.216-2.588-1.702-2.6-3.573
		c-0.014-2.155,1.399-2.208,2.988-2.422c1.444-0.196,2.833-0.789,4.322-1.229c-3.624-5.383-9.681-6.62-14.786-9.349
		c-1.427-0.763-2.894-0.216-4.274,0.532c-4.375,2.37-6.813,0.462-8.164-3.767c6.156,0.472,11.887-2.366,18.053-2.187
		c6.274,0.183,11.396,1.906,13.495,8.386c1.551,4.786,4.679,6.345,9.434,5.722c1.96-0.258,3.991,0.071,5.975-0.068
		c3.543-0.249,5.753,1.067,7.192,4.5c3.14,7.495,9.092,10.49,17.14,10.64C27.03-45.784,32.423-46.761,37.863-47.884z"/>
	<path fill-rule="evenodd" clip-rule="evenodd" fill="#A6C0D7" d="M95.929-31.94c8.148-3.008,11.587-10.167,14.883-17.284
		c1.449-3.128,2.773-6.236,5.151-8.779c6.271-1.603,9.019,0.186,11.411,6.583c0.755,2.017-0.635,5.632,2.361,5.896
		c3.427,0.303,2.983-3.736,4.342-5.8c0.091-0.138,0.168-0.286,0.239-0.436c3.765-7.869,3.764-7.869,11.632-5.245
		c2.927,4.379,7.08,3.2,11.102,2.377c1.114-0.227,2.115-0.986,3.229-1.248c8.523-2.011,10.563-1.165,15.649,6.342
		c1.019,1.504,2.016,3.021,3.021,4.533c-0.969,2.142-2.877,3.209-4.931,3.838c-4.878,1.495-9.647,2.694-11.969,8.265
		c-1.086,2.606-4.757,2.628-7.269,3.738c-1.951,0.859-3.558,1.669-3.788,3.993c-4.426,0.418-7.344,2.573-8.012,7.15
		c-0.155,1.061-0.162,1.933-1.555,1.991c-5.196,0.22-10.378,3.462-15.62-0.45c-1.497-1.117-3.766-0.815-4.86-3.176
		c-4.372-9.427-12.591-9.111-18.699-3.522C101.834-27.39,98.973-29.734,95.929-31.94z"/>
	<path fill-rule="evenodd" clip-rule="evenodd" fill="#FEFEFE" d="M145.948-57.004c-7.868-2.625-7.867-2.625-11.632,5.245
		c-0.071,0.149-0.148,0.298-0.239,0.436c-1.358,2.064-0.915,6.103-4.342,5.8c-2.996-0.265-1.606-3.879-2.361-5.896
		c-2.393-6.398-5.141-8.187-11.411-6.583c2.996-7.945,4.793-16.534,12.375-21.94c2.179-1.554,3.846-1.367,5.625,0.429
		C140.216-73.209,143.321-65.236,145.948-57.004z"/>
	<path fill-rule="evenodd" clip-rule="evenodd" fill="#FEFEFE" d="M150.993-25.166c0.23-2.323,1.837-3.133,3.788-3.993
		c2.512-1.109,6.183-1.132,7.269-3.738c2.321-5.571,7.091-6.77,11.969-8.265c2.054-0.629,3.962-1.696,4.931-3.838
		c3.764,2.548,7.818,1.991,11.904,1.119c0.383,3.547-2.813,3.965-4.797,5.34c-5.361,3.717-5.399,4.538-0.021,8.607
		c0.378,0.286,0.682,0.672,1.02,1.012c-1.285,1.537,0.432,5.515-3.712,4.708c-7.631-1.487-11.426,0.643-13.903,7.977
		c-2.082-1.366-4.311-2.034-6.842-1.821c-0.948,0.079-2.454,0.672-2.632-1.228C159.431-24.985,155.036-24.812,150.993-25.166z"/>
	<path fill-rule="evenodd" clip-rule="evenodd" fill="#008000" d="M150.993-25.166c4.043,0.354,8.438,0.181,8.973,5.88
		c0.178,1.899,1.684,1.307,2.632,1.228c2.531-0.213,4.76,0.455,6.842,1.821c2.478-7.334,6.272-9.464,13.903-7.977
		c4.144,0.807,2.427-3.171,3.712-4.708c4.171-1.632,8.157-3.986,12.95-3.131c0.527,0.095,1.515-0.184,1.671-0.552
		c1.765-4.154,6.354-4.801,9.219-7.556c1.014-0.329,2.026-0.658,3.039-0.987c1.54,0.474,2.859,0.964,0.5,2.314
		c-2.149,1.23-4.247,2.552-6.39,3.792c-2.75,1.593-5.155,3.238-1.355,6.227c-1.262,1.066-2.35,0.825-3.443,0.375
		c-7.435-3.06-11.868-1.435-15.321,5.875c-0.941,1.994-2.22,1.522-3.674,1.187c-7.837-1.809-11.139,0.207-12.256,7.832
		c-0.406,2.779-1.353,2.795-2.963,1.062c-2.284-2.458-4.917-3.877-8.354-3.544c-1.862,0.181-2.343-0.854-2.889-2.549
		c-1.108-3.442-3.912-5.104-7.38-4.014c-3.325,1.046-5.826,3.376-4.98,7.391c0.412,1.96,0.509,4.11-1.915,2.704
		c-4.684-2.719-7.356-0.188-10.259,2.671c-1.06,1.044-2.199,2.005-3.303,3.006c1.113-5.782-2.933-7.216-7.16-7.944
		c-2.516-0.434-4.024-0.7-5.108-3.632c-1.062-2.878-3.378-5.635-7.428-5.652c-5.168-0.022-6.121,4.234-8.406,8.266
		c-0.83-2.949-1.278-5.3-2.149-7.483c-1.722-4.314-4.865-6.993-9.67-7.197c-0.925-0.039-2.222,0.754-2.5-0.513
		c-0.323-1.47,1.079-1.868,2.279-1.963c1.322-0.105,2.655-0.056,3.984-0.074c0.386,1.007,1.294,0.971,2.135,1.071
		c3.044,2.207,5.905,4.551,6.318,8.768c6.108-5.589,14.327-5.905,18.699,3.522c1.095,2.36,3.363,2.059,4.86,3.176
		c5.242,3.913,10.424,0.67,15.62,0.45c1.393-0.059,1.399-0.931,1.555-1.991C143.649-22.593,146.567-24.748,150.993-25.166z"/>
	<path fill-rule="evenodd" clip-rule="evenodd" fill="#A6C0D7" d="M210.895-40.16c-2.864,2.754-7.454,3.402-9.219,7.556
		c-0.156,0.368-1.144,0.646-1.671,0.552c-4.793-0.854-8.779,1.5-12.95,3.131c-0.338-0.34-0.642-0.726-1.02-1.012
		c-5.378-4.07-5.34-4.89,0.021-8.607c1.983-1.375,5.18-1.792,4.797-5.34c6.616-4.67,11.1-4.56,17.539,0.434
		C209.225-42.35,210.06-41.255,210.895-40.16z"/>
	<path fill-rule="evenodd" clip-rule="evenodd" fill="#FEFEFE" d="M-162.129-55.107c-7.788-2.41-7.767-2.401-10.868,5.421
		c-0.477,1.202-1.168,2.348-1.916,3.408c-2.197,3.111-3.947,2.881-5.526-0.661c-2.744-6.15-5.39-6.555-10.527-1.604
		c-0.478,0.46-0.888,1.004-1.415,1.392c-1.495,1.101-2.484,3.938-4.729,2.644c-1.887-1.087-0.923-3.668-0.774-5.529
		c0.169-2.1,1.002-4.14,1.473-6.224c0.39-1.726,1.176-3.583-1.017-4.781c3.224-7.988,8.209-14.867,14.167-20.927
		c2.04-2.076,5.162-2.296,6.34,1.891c1.385,4.923,2.63,10.128,9.706,9.204c1.24-0.162,1.547,1.3,1.759,2.093
		C-164.242-64.251-163.218-59.67-162.129-55.107z"/>
	<path fill-rule="evenodd" clip-rule="evenodd" fill="#FEFEFE" d="M-45.555-27.062c-2.631,0.371-4.519-0.312-6.162-2.858
		c-2.436-3.775-7.104-1.513-10.563-2.965c-1.681-0.705-4.439,0.298-4.517-2.595c-0.067-2.516,2.373-2.923,4.241-3.438
		c4.24-1.167,7.899-2.632,9.855-7.281c1.668-3.962,10.687-5.21,14.733-1.94c3.129,2.528,6.29,3.432,10.07,3.139
		c2.485-0.193,4.972,0.198,5.588,2.951c0.727,3.24-2.485,3.029-4.25,3.714c-4.21,1.636-8.676,2.078-10.239,7.94
		C-37.539-27.615-41.97-26.651-45.555-27.062z"/>
</g>
</svg>
