<?xml version="1.0" encoding="utf-8"?>
<!-- Generator: Adobe Illustrator 16.0.0, SVG Export Plug-In . SVG Version: 6.00 Build 0)  -->
<!DOCTYPE svg PUBLIC "-//W3C//DTD SVG 1.1//EN" "http://www.w3.org/Graphics/SVG/1.1/DTD/svg11.dtd">
<svg version="1.1" id="Layer_1" xmlns="http://www.w3.org/2000/svg" xmlns:xlink="http://www.w3.org/1999/xlink" x="0px" y="0px"
	 width="32px" height="32px" viewBox="-31.5 32.5 32 32" enable-background="new -31.5 32.5 32 32" xml:space="preserve">
<rect x="-31.5" y="32.5" fill="#FFCAFD" stroke="#000000" stroke-miterlimit="10" width="32" height="27.288"/>
<ellipse fill="#FFFFFF" stroke="#000000" stroke-miterlimit="10" cx="-10.07" cy="45.14" rx="0.916" ry="0.802"/>
<path stroke="#000000" stroke-miterlimit="10" d="M-30,60.041c0,1.52-0.946,3.855,0.75,4.301c0.685,0.182,3.322,0.271,3.903-0.095
	c0.655-0.411,0.912-1.533,0.35-2.055c-0.936-0.866-1.347,0.357-1.996,0.761c-2.239,1.393-2.257-1.184-2.257-2.786"/>
<path stroke="#000000" stroke-miterlimit="10" d="M-22,60.041c0,1.52-0.946,3.855,0.75,4.301c0.684,0.182,3.321,0.271,3.902-0.095
	c0.655-0.411,0.912-1.533,0.35-2.055c-0.936-0.866-1.346,0.357-1.996,0.761c-2.238,1.393-2.256-1.184-2.256-2.786"/>
<path stroke="#000000" stroke-miterlimit="10" d="M-13,60.041c0,1.52-0.945,3.855,0.75,4.301c0.684,0.182,3.32,0.271,3.902-0.095
	c0.654-0.411,0.912-1.533,0.35-2.055c-0.936-0.866-1.346,0.357-1.996,0.761c-2.238,1.393-2.256-1.184-2.256-2.786"/>
<path stroke="#000000" stroke-miterlimit="10" d="M-5,60.041c0,1.52-0.945,3.855,0.75,4.301c0.684,0.182,3.32,0.271,3.902-0.095
	c0.654-0.411,0.912-1.533,0.35-2.055c-0.936-0.866-1.346,0.357-1.996,0.761c-2.238,1.393-2.256-1.184-2.256-2.786"/>
<ellipse fill="#FFFFFF" stroke="#000000" stroke-miterlimit="10" cx="-5.07" cy="43.12" rx="0.916" ry="0.801"/>
<path fill="none" stroke="#000000" stroke-miterlimit="10" d="M-7.125,50.313c-3.488,1.49-8.4-2.062-8.375-5.812"/>
<path fill="none" stroke="#000000" stroke-miterlimit="10" d="M-4.125,39.195c-1.053,0.182-2.904,0.653-3,2.021"/>
<path fill="none" stroke="#000000" stroke-miterlimit="10" d="M-8.375,42.228c-1.048,0.062-1.719-1.008-2.628-1.017
	c-0.867-0.01-0.976,0.643-1.747,0.891"/>
</svg>
