<?xml version="1.0" encoding="utf-8"?>
<!-- Generator: Adobe Illustrator 16.0.0, SVG Export Plug-In . SVG Version: 6.00 Build 0)  -->
<!DOCTYPE svg PUBLIC "-//W3C//DTD SVG 1.1//EN" "http://www.w3.org/Graphics/SVG/1.1/DTD/svg11.dtd">
<svg version="1.1" id="Layer_1" xmlns="http://www.w3.org/2000/svg" xmlns:xlink="http://www.w3.org/1999/xlink" x="0px" y="0px"
	 width="32px" height="32px" viewBox="0 0 32 32" enable-background="new 0 0 32 32" xml:space="preserve">
<rect fill="#FFCAFD" stroke="#000000" stroke-miterlimit="10" width="32" height="27"/>
<ellipse fill="#FFFFFF" stroke="#000000" stroke-miterlimit="10" cx="47.045" cy="14.109" rx="3.602" ry="2.524"/>
<ellipse fill="#FFFFFF" stroke="#000000" stroke-miterlimit="10" cx="21.43" cy="12.507" rx="0.916" ry="0.794"/>
<path stroke="#000000" stroke-miterlimit="10" d="M1.5,27.25c0,1.504-0.946,3.814,0.75,4.256c0.685,0.179,3.322,0.268,3.903-0.094
	c0.655-0.407,0.912-1.518,0.35-2.033c-0.936-0.858-1.347,0.354-1.996,0.753C2.268,31.51,2.25,28.96,2.25,27.375"/>
<path stroke="#000000" stroke-miterlimit="10" d="M9.5,27.25c0,1.504-0.946,3.814,0.75,4.256c0.684,0.179,3.321,0.268,3.902-0.094
	c0.655-0.407,0.912-1.518,0.35-2.033c-0.936-0.858-1.346,0.354-1.996,0.753c-2.238,1.378-2.256-1.172-2.256-2.757"/>
<path stroke="#000000" stroke-miterlimit="10" d="M18.5,27.25c0,1.504-0.946,3.814,0.75,4.256c0.684,0.179,3.321,0.268,3.902-0.094
	c0.655-0.407,0.912-1.518,0.35-2.033c-0.936-0.858-1.346,0.354-1.996,0.753c-2.238,1.378-2.256-1.172-2.256-2.757"/>
<path stroke="#000000" stroke-miterlimit="10" d="M26.5,27.25c0,1.504-0.946,3.814,0.75,4.256c0.684,0.179,3.321,0.268,3.902-0.094
	c0.655-0.407,0.912-1.518,0.35-2.033c-0.936-0.858-1.346,0.354-1.996,0.753c-2.238,1.378-2.256-1.172-2.256-2.757"/>
<ellipse fill="#FFFFFF" stroke="#000000" stroke-miterlimit="10" cx="26.43" cy="10.508" rx="0.916" ry="0.793"/>
<path fill="none" stroke="#000000" stroke-miterlimit="10" d="M24.375,17.625c-3.488,1.474-8.4-2.039-8.375-5.75"/>
<path fill="none" stroke="#000000" stroke-miterlimit="10" d="M27.375,6.625c-1.053,0.179-2.904,0.647-3,2"/>
<path fill="none" stroke="#000000" stroke-miterlimit="10" d="M37.25,7.75c0.042-0.042,0.083-0.083,0.125-0.125"/>
<path fill="none" stroke="#000000" stroke-miterlimit="10" d="M23.125,9.625c-1.048,0.061-1.719-0.997-2.628-1.006
	C19.63,8.61,19.521,9.255,18.75,9.5"/>
</svg>
